<svg width="32" height="32" viewBox="0 0 32 32" fill="none" xmlns="http://www.w3.org/2000/svg">
  <path id="button" fill-rule="evenodd" clip-rule="evenodd"
    d="M16 0C20.9599 4.01655e-05 25.0014 1.3987 27.8013 4.19866C30.6011 6.99865 32 11.0402 32 16C31.9999 20.9598 30.6013 25.0014 27.8013 27.8013C25.0014 30.6013 20.9599 32 16 32C11.0402 32 6.99865 30.6011 4.19866 27.8013C1.39873 25.0014 6.80339e-05 20.9598 0 16C0 11.04 1.39871 6.99866 4.19866 4.19866C6.99866 1.39866 11.04 0 16 0ZM14.7366 18.1897C13.9771 17.7512 13.0726 17.6324 12.2254 17.8594C11.3786 18.0865 10.6571 18.6425 10.2188 19.4018C9.7805 20.1612 9.66146 21.0638 9.88839 21.9107C10.1154 22.7574 10.6695 23.479 11.4286 23.9174C12.188 24.3558 13.0905 24.4746 13.9375 24.2478C14.7846 24.0208 15.5079 23.4671 15.9464 22.7076C16.3848 21.9482 16.5037 21.0456 16.2768 20.1987C16.0498 19.3516 15.496 18.6283 14.7366 18.1897ZM22.7076 16.0536C21.9484 15.6153 21.0455 15.4965 20.1987 15.7232C19.3515 15.9502 18.6282 16.5061 18.1897 17.2656C17.7515 18.025 17.6325 18.9277 17.8594 19.7746C18.0863 20.6212 18.6407 21.3427 19.3996 21.7813C20.1591 22.2198 21.0636 22.3386 21.9107 22.1116C22.7574 21.8844 23.4791 21.3306 23.9174 20.5714C24.3559 19.8119 24.4747 18.9096 24.2478 18.0625C24.0208 17.2154 23.4671 16.4921 22.7076 16.0536ZM12.6004 10.2188C11.8407 9.78013 10.9366 9.66135 10.0893 9.88839C9.24261 10.1156 8.52106 10.6695 8.08259 11.4286C7.64397 12.1883 7.52519 13.0924 7.75223 13.9397C7.97942 14.7865 8.53323 15.508 9.29241 15.9464C10.0519 16.3849 10.9542 16.5036 11.8013 16.2768C12.6486 16.0498 13.3716 15.4962 13.8103 14.7366C14.2488 13.9771 14.3674 13.0748 14.1406 12.2277C13.9136 11.3805 13.3599 10.6574 12.6004 10.2188ZM20.2812 7.93304C19.5881 7.61942 18.8039 7.55378 18.0625 7.75223C17.2156 7.97917 16.4922 8.53321 16.0536 9.29241C15.615 10.052 15.4962 10.9563 15.7232 11.8036C15.9502 12.6503 16.5044 13.3717 17.2634 13.8103C18.0231 14.2489 18.9272 14.3677 19.7746 14.1406C20.6216 13.9134 21.345 13.3599 21.7835 12.6004C22.2217 11.8412 22.3405 10.9384 22.1138 10.0915C21.8868 9.24417 21.3311 8.52121 20.5714 8.08259L20.2812 7.93304Z"
    fill="currentColor" />
</svg>