<svg width="100" height="30" viewBox="0 0 100 30" fill="none" xmlns="http://www.w3.org/2000/svg">
  <g id="Group 5421">
    <g id="Group 5421_2">
      <g id="Vector">
        <path
          d="M63.6562 13.1926L71.2759 1.94724H75.8236V25.9732H70.0732V12.7824L65.1334 19.9155H61.9889L57.0173 12.7233V25.9732H51.2987V1.94724H56.0061L63.6562 13.1926Z"
          fill="currentColor" />
        <path d="M84.4479 25.9732H78.3607V1.94724H84.4479V25.9732Z" fill="currentColor" />
        <path d="M100 7.24104H96.4751V25.9732H90.5099V7.24104H86.985V1.94724H100V7.24104Z" fill="currentColor" />
        <path
          d="M7.79221 9.97014L22.0779 18.6459L36.3636 9.96986V19.5012L34.4682 18.3494L26.9601 22.9092L36.5228 28.7161L44.1558 24.1537V5.11062L36.6972 0.648438L22.0779 9.52677L7.45865 0.648715L0 5.1109V24.154L7.63304 28.7164L17.1957 22.9095L9.68763 18.3496L7.79221 19.5015V9.97014Z"
          fill="currentColor" />
      </g>
    </g>
  </g>
</svg>