<svg width="112" height="30" viewBox="0 0 112 30" fill="none" xmlns="http://www.w3.org/2000/svg">
  <g id="Group 1">
    <g id="Component 18">
      <g id="Group 5">
        <path id="Vector 1"
          d="M40.3926 22.285V7.6206C40.3926 7.01228 40.9149 6.53528 41.5207 6.59035L50.7324 7.42778C51.5215 7.49952 51.9403 8.3954 51.4893 9.04687L47.9212 14.2008C47.6925 14.5311 47.6757 14.9639 47.8781 15.3109L50.6684 20.0942C51.0261 20.7075 50.6739 21.4906 49.9777 21.6299L41.6299 23.2994C40.9898 23.4275 40.3926 22.9378 40.3926 22.285Z"
          stroke="currentColor" stroke-width="3.10348" stroke-linecap="round" stroke-linejoin="round" />
        <path id="Vector 5"
          d="M54.7727 11.2905V19.4519C54.7727 20.0818 55.3308 20.5654 55.9542 20.4759L62.4402 19.5449M62.4402 19.5449L62.9905 11.2905M62.4402 19.5449L64.3464 20.6455"
          stroke="currentColor" stroke-width="3.10348" stroke-linecap="round" stroke-linejoin="round" />
        <path id="Vector 4"
          d="M79.8946 7.63818L79.3743 18.5645C79.3559 18.9513 79.555 19.316 79.8904 19.5096L83.7467 21.7361"
          stroke="currentColor" stroke-width="3.10348" stroke-linecap="round" stroke-linejoin="round" />
        <path id="Vector 6"
          d="M66.827 12.0503L85.2607 11.0735M71.2293 8.19824L70.709 19.1246C70.6906 19.5114 70.8897 19.8761 71.2251 20.0697L75.0814 22.2961"
          stroke="currentColor" stroke-width="3.10348" stroke-linecap="round" stroke-linejoin="round" />
        <path id="Vector 3"
          d="M88.7977 18.1268L89.2238 11.3098C89.2579 10.7646 89.71 10.3398 90.2563 10.3398H94.8535C95.4248 10.3398 95.888 10.803 95.888 11.3743V18.5777C95.888 19.1803 95.375 19.6554 94.7741 19.6092L89.7509 19.2228C89.187 19.1794 88.7625 18.6912 88.7977 18.1268Z"
          stroke="currentColor" stroke-width="3.10348" stroke-linecap="round" stroke-linejoin="round" />
        <path id="Vector 2"
          d="M100 19.5382L101.113 11.3247C101.166 10.9377 101.432 10.6133 101.801 10.4858L107.628 8.47379C108.3 8.2418 109 8.74085 109 9.45163V22"
          stroke="currentColor" stroke-width="3.10348" stroke-linecap="round" stroke-linejoin="round" />
      </g>
      <path id="button" fill-rule="evenodd" clip-rule="evenodd"
        d="M15 0C19.6499 3.76552e-05 23.4388 1.31128 26.0638 3.93624C28.6886 6.56123 30 10.3502 30 15C29.9999 19.6498 28.6887 23.4388 26.0638 26.0638C23.4388 28.6887 19.6499 30 15 30C10.3502 30 6.56123 28.6886 3.93624 26.0638C1.31131 23.4388 6.37818e-05 19.6498 0 15C0 10.35 1.31129 6.56124 3.93624 3.93624C6.56124 1.31124 10.35 0 15 0ZM13.8156 17.0529C13.1035 16.6418 12.2555 16.5304 11.4614 16.7432C10.6675 16.9561 9.99106 17.4773 9.58008 18.1892C9.16922 18.9011 9.05762 19.7473 9.27037 20.5413C9.4832 21.3351 10.0027 22.0115 10.7143 22.4226C11.4262 22.8336 12.2723 22.9449 13.0664 22.7323C13.8606 22.5195 14.5387 22.0004 14.9498 21.2884C15.3607 20.5764 15.4722 19.7303 15.2595 18.9362C15.0467 18.1422 14.5275 17.464 13.8156 17.0529ZM21.2884 15.0502C20.5766 14.6394 19.7301 14.528 18.9362 14.7405C18.1421 14.9533 17.464 15.4745 17.0529 16.1865C16.6421 16.8984 16.5304 17.7447 16.7432 18.5386C16.9559 19.3324 17.4756 20.0088 18.1871 20.4199C18.8991 20.831 19.7471 20.9424 20.5413 20.7296C21.335 20.5167 22.0116 19.9975 22.4226 19.2857C22.8336 18.5737 22.9451 17.7277 22.7323 16.9336C22.5195 16.1394 22.0004 15.4613 21.2884 15.0502ZM11.8129 9.58008C11.1007 9.16887 10.2531 9.05751 9.45871 9.27037C8.66494 9.48334 7.9885 10.0026 7.57743 10.7143C7.16622 11.4265 7.05486 12.2741 7.26772 13.0685C7.4807 13.8623 7.99991 14.5387 8.71163 14.9498C9.42365 15.3609 10.2696 15.4721 11.0638 15.2595C11.858 15.0467 12.5359 14.5277 12.9471 13.8156C13.3582 13.1036 13.4694 12.2576 13.2568 11.4634C13.044 10.6692 12.5249 9.99131 11.8129 9.58008ZM19.0137 7.43722C18.3638 7.14321 17.6286 7.08167 16.9336 7.26772C16.1396 7.48047 15.4614 7.99988 15.0502 8.71163C14.6391 9.42378 14.5277 10.2716 14.7405 11.0658C14.9533 11.8596 15.4729 12.536 16.1844 12.9471C16.8967 13.3583 17.7442 13.4697 18.5386 13.2568C19.3327 13.0439 20.0109 12.5249 20.422 11.8129C20.8328 11.1011 20.9442 10.2547 20.7317 9.4608C20.5189 8.6664 19.9979 7.98864 19.2857 7.57743L19.0137 7.43722Z"
        fill="currentColor" />
    </g>
  </g>
</svg>