<svg width="42" height="42" viewBox="0 0 42 42" fill="none" xmlns="http://www.w3.org/2000/svg">
<g id="Group 5413">
<g id="Group 5409" opacity="0.2">
<path id="Ellipse 27" d="M22.3683 18.8946L19.9802 17.2663L20.1973 15.9637L24.865 12.5986L32.2901 13.0936M22.3683 18.8946L25.4078 19.2203L26.819 20.9571M22.3683 18.8946L20.8486 18.6775L19.6545 18.3519L17.1578 20.5229V23.5624L19.5459 23.3453L20.6315 26.0155L21.0657 29.7499H22.9111L24.5394 28.4473V25.6249L26.6019 23.8881L26.819 20.9571M26.819 20.9571L32.5723 21.6084L33.4407 22.8025L34.8988 24.2606M10.8617 21.4999L12.8157 22.694V27.9045L14.3354 29.5328L13.0529 32.2582M10.8617 21.4999L11.4045 19.9802L11.7302 17.7006L15.2038 15.2038V12.5986L14.5458 9.71954M10.8617 21.4999L7.84615 20.6849M32.2901 13.0936C34.0995 15.4128 35.1775 18.3304 35.1775 21.4999C35.1775 22.4456 35.0815 23.3689 34.8988 24.2606M32.2901 13.0936C31.115 11.5874 29.6314 10.3336 27.9343 9.42721M27.9343 9.42721C26.0165 8.40293 23.826 7.82227 21.4999 7.82227C20.1684 7.82227 18.8813 8.01253 17.6643 8.36736M27.9343 9.42721L25.9506 9.66766L23.6709 8.79924L21.3913 9.01634C20.4218 8.85081 18.7815 8.56782 17.6643 8.36736M17.6643 8.36736C16.5607 8.68914 15.5148 9.14626 14.5458 9.71954M14.5458 9.71954C10.7408 11.9705 8.12073 16.0125 7.84615 20.6849M7.84615 20.6849C7.8303 20.9545 7.82227 21.2263 7.82227 21.4999C7.82227 25.8658 9.86785 29.754 13.0529 32.2582M13.0529 32.2582C15.3786 34.0868 18.3119 35.1775 21.4999 35.1775C24.4049 35.1775 27.0985 34.2719 29.3135 32.7275M29.3135 32.7275L28.8815 29.0986L29.4242 27.6874L31.3782 25.842L34.4146 26.0155M29.3135 32.7275C31.6517 31.0972 33.4567 28.7552 34.4146 26.0155M34.4146 26.0155C34.6134 25.4468 34.7758 24.8609 34.8988 24.2606" stroke="#1E88E5" stroke-width="1.5" stroke-linejoin="round"/>
<circle id="Ellipse 28" cx="21.5" cy="21.5" r="16.5" stroke="#1E88E5" stroke-width="1.5" stroke-linecap="round" stroke-linejoin="round" stroke-dasharray="8 8"/>
</g>
</g>
</svg>
