<svg width="157" height="127" viewBox="0 0 157 127" fill="none" xmlns="http://www.w3.org/2000/svg">
<g id="Group 5406" opacity="0.2">
<path id="Vector" d="M57.3263 115.828H41.7646L36.0829 94.5503M128.238 115.828H135.428L141.11 94.5503M102.515 115.828H83.0492M106.686 65.9479H148.747L143.159 86.8765M81.6588 65.9479H96.9534M70.1876 65.9479H28.4453L29.8425 71.18M34.0338 86.8765L31.6121 77.8074M126.153 90.7134H146.661M28.4453 90.7134H115.029M49.6788 61.7622L50.6102 58.2741L65.3212 56.1812L71.2305 50.9491M71.2305 50.9491L78.1826 54.0884V60.367M71.2305 50.9491V41.5312L86.1777 34.2063L90.6966 28.6253M118.853 15.3705H101.125L95.9106 21.9979M118.853 15.3705L114.438 23.0443L106.686 27.5349L104.719 34.9039M118.853 15.3705L131.019 8.74316L136.928 15.0217L137.971 21.6491L137.137 25.8348M134.495 39.0896L137.662 50.9491L133.8 61.7622M134.495 39.0896L124.762 41.7066L122.294 50.9491H118.853L109.12 45.3103L100.858 59.6693M134.495 39.0896L135.747 32.811M63.9998 50.9765H53.9192M99.7343 124.897H42.4597M149.529 124.897L111.901 124.897M63.1856 50.3081L56.2857 46.8667L54.1997 44.2447M41.2024 38.0175H49.3859L51.7928 41.1311M41.2024 38.0175L43.2405 41.6227L46.8185 43.7325L47.7269 47.1945M41.2024 38.0175L35.5863 34.9039L32.8584 37.8536L32.377 40.9672L32.7621 42.9337M33.404 46.2112L35.5863 56.1812L40.5001 61.7622M116.27 105.123C121.583 105.123 125.89 109.43 125.89 114.743C125.89 120.056 121.583 124.363 116.27 124.363C110.957 124.363 106.65 120.056 106.65 114.743C106.65 112.766 107.247 110.927 108.27 109.399M69.9518 105.123C64.6388 105.123 60.3318 109.43 60.3318 114.743C60.3318 120.056 64.6388 124.363 69.9518 124.363C75.2648 124.363 79.5719 120.056 79.5719 114.743C79.5719 112.766 78.9751 110.927 77.9519 109.399M63.1856 41.1311L63.9998 32.811L72 23.0443L84.5 25.8348V30.5" stroke="#1E88E5" stroke-width="2" stroke-linecap="round" stroke-linejoin="round"/>
</g>
</svg>
