<svg width="42" height="42" viewBox="0 0 42 42" fill="none" xmlns="http://www.w3.org/2000/svg">
<g id="Group 5412" opacity="0.2">
<path id="Vector" d="M31.7303 13.4234V11.8905L23.2995 6.10742H21.7666M31.7303 13.4234H21.7666V6.10742M31.7303 13.4234V16.2801M21.7666 6.10742H5.9502V34.8139H18.8402M8.73723 12.657H15.3564M8.73723 17.1859H15.3564M8.73723 21.9239H16.3319M8.73723 26.3831H15.3564M32.3566 26.8011H26.7825L23.8561 22.9689M36.0494 26.8011C36.0494 31.919 31.9005 36.068 26.7825 36.068C21.6646 36.068 17.5156 31.919 17.5156 26.8011C17.5156 21.6831 21.6646 17.5342 26.7825 17.5342C31.9005 17.5342 36.0494 21.6831 36.0494 26.8011Z" stroke="#1E88E5" stroke-width="2" stroke-linecap="round" stroke-linejoin="round"/>
</g>
</svg>
