<svg width="52" height="53" viewBox="0 0 52 53" fill="none" xmlns="http://www.w3.org/2000/svg">
<g id="Group 5407" opacity="0.2">
<path id="Vector" d="M42.5037 32.9656L37.2446 27.6951L33.1091 28.8056M33.1091 28.8056L28.9736 29.9161L27.3951 35.8201M33.1091 28.8056L34.9117 22.0634H39.7803M39.7803 22.0634L41.7075 16.3967L46.6775 19.3446V23.9948M39.7803 22.0634L41.7075 23.9948H46.6775M46.6775 23.9948V44.0454H13.3074L17.0603 38.2514L23.4503 34.3887L27.3951 35.8201M26.3917 39.5728L27.3951 35.8201M31.0574 18.938L33.6946 14.3604M32.6803 20.5644L35.926 17.3116M26.3917 26.46L22.3346 29.6112M24.6674 24.8336L19.596 26.1551M22.6291 11.25L23.3409 10.0172L20.5321 8.39551L19.7356 9.77511M22.6291 11.25C26.6332 13.8849 29.2764 18.4194 29.2764 23.5714C29.2764 24.1959 29.2375 24.8113 29.1621 25.4154C27.8534 20.7651 24.856 16.8222 20.8737 14.2905M22.6291 11.25C21.7286 10.6574 20.7592 10.1609 19.7356 9.77511M19.7356 9.77511C18.1195 9.166 16.3683 8.83275 14.5392 8.83275C11.1454 8.83275 8.0196 9.98 5.52832 11.9079C7.10722 11.4931 8.76468 11.2722 10.4737 11.2722C13.1418 11.2722 15.6841 11.8105 17.9981 12.7845M17.9981 12.7845L7.96422 30.1637L10.773 31.7853L20.8737 14.2905M17.9981 12.7845C19.0024 13.2072 19.9638 13.712 20.8737 14.2905" stroke="#1E88E5" stroke-width="2" stroke-linecap="round" stroke-linejoin="round"/>
</g>
</svg>
