<svg width="52" height="52" viewBox="0 0 52 52" fill="none" xmlns="http://www.w3.org/2000/svg">
<g id="Group 5410" opacity="0.2">
<path id="Vector" d="M21.858 42.5378C7.61777 35.1714 18.7735 17.2924 26.4324 9C33.9432 17.132 44.8191 34.4832 31.8076 42.0986M21.858 42.5378C21.052 41.9427 20.3547 41.1871 19.8297 40.3216C19.5048 39.7307 19.2123 39.0618 19.0607 38.3929C18.8766 37.8355 18.8116 37.278 18.7466 36.7206C18.6058 34.3014 19.5914 31.7373 21.4003 30.2211C20.5771 32.0494 20.7721 34.3349 21.996 35.9291C22.0348 36.0013 22.0862 36.0656 22.1476 36.1186C22.3534 36.297 22.6134 36.3639 22.8625 36.2524C23.0791 36.1632 23.2416 35.9402 23.2416 35.695C23.2416 35.55 23.1983 35.4386 23.155 35.3271C21.8335 31.8153 22.9383 27.7238 25.7436 25.4049C26.5127 24.7695 27.4117 24.1897 28.4407 23.9333C27.4117 25.9958 27.7691 28.6826 29.383 30.3103C30.0762 31.0126 30.8994 31.492 31.6251 32.1609C31.9067 32.4508 32.21 32.7406 32.4591 33.0751C32.4591 33.0751 33.0656 33.967 33.2931 34.4798L33.4339 34.7696C34.4467 37.2983 33.766 40.2461 31.8076 42.0986M21.858 42.5378C22.848 43.2688 24.002 43.7578 25.2021 43.9114C27.52 44.2124 30.0004 43.7776 31.7767 42.1276C31.787 42.118 31.7973 42.1083 31.8076 42.0986" stroke="#1E88E5" stroke-width="2"/>
</g>
</svg>
