<svg width="52" height="52" viewBox="0 0 52 52" fill="none" xmlns="http://www.w3.org/2000/svg">
<g id="Group 5408" opacity="0.2">
<path id="Vector" d="M8.39486 29.8892L8.39486 34.1883M11.0544 28.2522L11.0544 34.1891M17.1959 22.726V32.1431M20.0616 22.3138V28.6601M23.1353 22.1108V27.4335M26 19.6534V26.6138M29.0708 17.4V27.4312M32.1416 17.8102V28.6603M35.0082 18.2194V29.8884M38.0782 15.7642V31.3229M44.0152 10.6452V34.1879M6.34668 34.1883H14.1481L14.1481 25.1804M45.6538 34.1883H41.1498V13.1017M7.94697 28.2041L15.7484 20.4245H22.8497L28.2506 15.0387L34.8518 15.9363L43.8534 6.95996M28.1793 41.1432L32.9963 39.8584M28.1793 41.1432L27.0773 45.237M28.1793 41.1432L16.237 34.955M32.9963 39.8584L32.1935 39.4881M32.9963 39.8584L35.7059 42.5556M27.0773 45.237L36.007 42.8553L35.7059 42.5556M27.0773 45.237L14.3303 39.1506L16.237 34.955M16.237 34.955L17.8929 34.3056M20.8533 29.5606L19.5487 33.6563L32.1935 39.4881M20.8533 29.5606L32.9963 34.955M20.8533 29.5606L26.0718 28.6615L38.4155 34.1558M32.9963 34.955L32.1935 39.4881M32.9963 34.955L38.4155 34.1558M32.1935 39.4881L38.4155 38.412M38.4155 34.1558L39.0176 35.7541L39.9208 38.0517M38.4155 38.412L39.9208 38.0517M38.4155 38.412L37.4161 42.0995M39.9208 38.0517L43.3329 37.2526M43.3329 37.2526L45.0389 40.7675L37.2112 42.8553L37.4161 42.0995M43.3329 37.2526L41.1753 36.5033M35.7059 42.5556L37.4161 42.0995" stroke="#1E88E5" stroke-width="1.5" stroke-linecap="round" stroke-linejoin="round"/>
</g>
</svg>
