<svg xmlns="http://www.w3.org/2000/svg" xmlns:xlink="http://www.w3.org/1999/xlink" fill="none" version="1.1" width="16"
  height="16" viewBox="0 0 16 16">
  <defs>
    <clipPath id="master_svg0_11_61206">
      <rect x="0" y="0" width="16" height="16" rx="0" />
    </clipPath>
  </defs>
  <g clip-path="url(#master_svg0_11_61206)">
    <g>
      <g>
        <path
          d="M4.353613,3.646506L12.35355,11.64645Q12.42388,11.71677,12.46194,11.80866Q12.5,11.90054,12.5,12Q12.5,12.04924,12.49039,12.09754Q12.48078,12.14584,12.46194,12.19134Q12.44309,12.23684,12.41573,12.27778Q12.38837,12.31873,12.35355,12.35355Q12.31873,12.38837,12.27778,12.41573Q12.23684,12.44309,12.19134,12.46194Q12.14584,12.48078,12.09754,12.49039Q12.04924,12.5,12,12.5Q11.90054,12.5,11.80866,12.46194Q11.71677,12.42388,11.64645,12.35355L3.646506,4.353613L3.646447,4.353553Q3.57612,4.283227,3.5380599999999998,4.191342Q3.5,4.0994562,3.5,4Q3.5,3.9507543,3.509607,3.9024549Q3.519215,3.854155,3.5380599999999998,3.808658Q3.556906,3.763161,3.584265,3.722215Q3.611625,3.681269,3.646447,3.646447Q3.681269,3.611625,3.722215,3.584265Q3.763161,3.556906,3.808658,3.5380599999999998Q3.854155,3.519215,3.9024549,3.509607Q3.9507543,3.5,4,3.5Q4.0994562,3.5,4.191342,3.5380599999999998Q4.283227,3.57612,4.353553,3.646447L4.353613,3.646506Z"
          fill-rule="evenodd" fill="currentColor" fill-opacity="1" style="mix-blend-mode:passthrough" />
      </g>
      <g>
        <path
          d="M12.35355,4.353553Q12.42388,4.283227,12.46194,4.191342Q12.5,4.0994561,12.5,4Q12.5,3.9507543,12.49039,3.9024549Q12.48078,3.854155,12.46194,3.808658Q12.44309,3.763161,12.41573,3.722215Q12.38837,3.681269,12.35355,3.646447Q12.31873,3.611625,12.27778,3.584265Q12.23684,3.556906,12.19134,3.5380599999999998Q12.14584,3.519215,12.09754,3.509607Q12.04924,3.5,12,3.5Q11.90054,3.5,11.80866,3.5380599999999998Q11.71677,3.57612,11.64645,3.646447L11.64626,3.646634L3.646634,11.64626L3.646447,11.64645Q3.57612,11.71677,3.5380599999999998,11.80866Q3.5,11.90054,3.5,12Q3.5,12.04924,3.509607,12.09754Q3.519215,12.14584,3.5380599999999998,12.19134Q3.556906,12.23684,3.584265,12.27778Q3.611625,12.31873,3.646447,12.35355Q3.681269,12.38837,3.722215,12.41573Q3.763161,12.44309,3.808658,12.46194Q3.854155,12.48078,3.9024549,12.49039Q3.9507543,12.5,4,12.5Q4.0994561,12.5,4.191342,12.46194Q4.283227,12.42388,4.353553,12.35355L12.35355,4.353553L12.35355,4.353553Z"
          fill-rule="evenodd" fill="currentColor" fill-opacity="1" style="mix-blend-mode:passthrough" />
      </g>
    </g>
  </g>
</svg>