<svg xmlns="http://www.w3.org/2000/svg" xmlns:xlink="http://www.w3.org/1999/xlink" fill="none" version="1.1" width="12"
  height="12" viewBox="0 0 12 12">
  <defs>
    <clipPath id="master_svg0_11_14483">
      <rect x="12" y="0" width="12" height="12" rx="0" />
    </clipPath>
  </defs>
  <g transform="matrix(-1,0,0,1,24,0)" clip-path="url(#master_svg0_11_14483)">
    <g>
      <rect x="12" y="0" width="12" height="12" rx="0" fill="currentColor" fill-opacity="0.009999999776482582"
        style="mix-blend-mode:passthrough" />
    </g>
    <g>
      <path
        d="M15.853613,2.646506L18.85355,5.64645Q18.92388,5.71677,18.96194,5.80866Q19,5.9005399999999995,19,6Q19,6.0994600000000005,18.96194,6.19134Q18.92388,6.28323,18.85355,6.35355L15.854004,9.353100000000001L15.853553,9.35355Q15.783227,9.42388,15.691342,9.46194Q15.5994563,9.5,15.5,9.5Q15.4507543,9.5,15.4024549,9.49039Q15.354155,9.48078,15.308658,9.46194Q15.263161,9.44309,15.222215,9.41573Q15.181269,9.38837,15.146447,9.35355Q15.111625,9.31873,15.084265,9.27778Q15.056906,9.23684,15.03806,9.19134Q15.019214999999999,9.14584,15.009607,9.09755Q15,9.04925,15,9Q15,8.90054,15.03806,8.80866Q15.07612,8.71677,15.146447,8.64645L15.146634,8.64626L17.79289,6L15.146506,3.353613L15.146447,3.353553Q15.07612,3.283227,15.03806,3.191342Q15,3.0994562,15,3Q15,2.9507543,15.009607,2.9024549Q15.019214999999999,2.854155,15.03806,2.808658Q15.056906,2.763161,15.084265,2.722215Q15.111625,2.681269,15.146447,2.646447Q15.181269,2.611625,15.222215,2.584265Q15.263161,2.556906,15.308658,2.5380599999999998Q15.354155,2.519215,15.4024549,2.509607Q15.4507543,2.5,15.5,2.5Q15.5994562,2.5,15.691342,2.5380599999999998Q15.783227,2.57612,15.853553,2.646447L15.853613,2.646506Z"
        fill-rule="evenodd" fill="currentColor" fill-opacity="1" style="mix-blend-mode:passthrough" />
    </g>
    <g>
      <path
        d="M20,3Q20,2.9507543,20.009607,2.9024549Q20.019215,2.854155,20.03806,2.808658Q20.056906,2.763161,20.084265,2.722215Q20.111625,2.681269,20.146447,2.646447Q20.181269,2.611625,20.222215,2.584265Q20.263161,2.556906,20.308658,2.5380599999999998Q20.354155,2.519215,20.4024549,2.509607Q20.4507543,2.5,20.5,2.5Q20.5492457,2.5,20.5975451,2.509607Q20.645845,2.519215,20.691342,2.5380599999999998Q20.736839,2.556906,20.777785,2.584265Q20.818731,2.611625,20.853553,2.646447Q20.888375,2.681269,20.915735,2.722215Q20.943094,2.763161,20.96194,2.808658Q20.980785,2.854155,20.990393,2.9024549Q21,2.9507543,21,3L21,9Q21,9.04925,20.990393,9.09755Q20.980785,9.14584,20.96194,9.19134Q20.943094,9.23684,20.915735,9.27778Q20.888375,9.31873,20.853553,9.35355Q20.818731,9.38837,20.777785,9.41573Q20.736839,9.44309,20.691342,9.46194Q20.645845,9.48078,20.5975451,9.49039Q20.5492457,9.5,20.5,9.5Q20.4507543,9.5,20.4024549,9.49039Q20.354155,9.48078,20.308658,9.46194Q20.263161,9.44309,20.222215,9.41573Q20.181269,9.38837,20.146447,9.35355Q20.111625,9.31873,20.084265,9.27778Q20.056906,9.23684,20.03806,9.19134Q20.019215,9.14584,20.009607,9.09755Q20,9.04925,20,9L20,3Z"
        fill-rule="evenodd" fill="currentColor" fill-opacity="1" style="mix-blend-mode:passthrough" />
    </g>
  </g>
</svg>