<svg xmlns="http://www.w3.org/2000/svg" xmlns:xlink="http://www.w3.org/1999/xlink" fill="none" version="1.1" width="16"
  height="16" viewBox="0 0 16 16">
  <defs>
    <clipPath id="master_svg0_11_54109">
      <rect x="0" y="0" width="16" height="16" rx="0" />
    </clipPath>
  </defs>
  <g clip-path="url(#master_svg0_11_54109)">
    <g>
      <path
        d="M4.333740234375,0.833984375Q4.284494534375,0.833984375,4.236195134375,0.8435913749999999Q4.187895234375,0.853199375,4.142398234375,0.872044375Q4.096901234375,0.890890375,4.055955234375,0.918249375Q4.015009234375,0.945609375,3.980187234375,0.980431375Q3.945365234375,1.015253375,3.918005234375,1.056199375Q3.890646234375,1.097145375,3.8718002343749998,1.1426423749999999Q3.852955234375,1.188139375,3.843347234375,1.236439275Q3.833740234375,1.284738675,3.833740234375,1.333984375L3.833740234375,12.667284375Q3.833740234375,12.716584375,3.843347234375,12.764884375Q3.852955234375,12.813184375,3.8718002343749998,12.858684375Q3.890646234375,12.904184375,3.918005234375,12.945084375Q3.945365234375,12.986084375,3.980187234375,13.020884375Q4.015009234375,13.055684375,4.055955234375,13.083084375Q4.096901234375,13.110384375,4.142398234375,13.129284375Q4.187895234375,13.148084375,4.236195134375,13.157684375Q4.284494534375,13.167284375,4.333740234375,13.167284375L13.667070234375,13.167284375Q13.716320234375,13.167284375,13.764620234375,13.157684375Q13.812920234375,13.148084375,13.858420234375,13.129284375Q13.903910234375,13.110384375,13.944860234375,13.083084375Q13.985810234375,13.055684375,14.020630234375,13.020884375Q14.055450234375,12.986084375,14.082810234375,12.945084375Q14.110170234375,12.904184375,14.129010234375,12.858684375Q14.147860234375,12.813184375,14.157460234375,12.764884375Q14.167070234375,12.716584375,14.167070234375,12.667284375L14.167070234375,5.333984375Q14.167070234375,5.284734375,14.157460234375,5.236434375Q14.147860234375,5.188134375000001,14.129010234375,5.142644375Q14.110170234375,5.097144375,14.082810234375,5.0561943750000005Q14.055450234375,5.015254375,14.020630234375,4.980434375Q13.985810234375,4.945604375,13.944860234375,4.9182443750000004Q13.903910234375,4.890894375,13.858420234375,4.872044375Q13.812920234375,4.853194375,13.764620234375,4.843594375Q13.716320234375,4.833984375,13.667070234375,4.833984375L10.500410234375,4.833984375L10.500410234375,1.333984375Q10.500410234375,1.284738675,10.490800234375001,1.236439275Q10.481190234375,1.188139375,10.462350234375,1.1426423749999999Q10.443500234375,1.097145375,10.416140234375,1.056199375Q10.388780234375,1.015253375,10.353960234375,0.980431375Q10.319140234375,0.945609375,10.278190234375,0.918249375Q10.237240234375001,0.890890375,10.191750234375,0.872044375Q10.146250234375,0.853199375,10.097950234375,0.8435913749999999Q10.049650234375001,0.833984375,10.000410234375,0.833984375L4.333740234375,0.833984375ZM4.833740234375,1.833984375L4.833740234375,12.167284375L13.167070234375,12.167284375L13.167070234375,5.833984375L10.000410234375,5.833984375Q9.951160234375,5.833984375,9.902860234375,5.824374375Q9.854560234375,5.814764375,9.809070234375,5.795924375Q9.763570234374999,5.777074375,9.722620234375,5.749714375Q9.681680234375001,5.722354375,9.646850234375,5.687534375Q9.612030234375,5.652714375,9.584670234375,5.611764375Q9.557310234374999,5.570824375,9.538470234375,5.525324375Q9.519620234375001,5.479824375,9.510010234374999,5.431534375Q9.500410234375,5.383234375,9.500410234375,5.333984375L9.500410234375,1.833984375L4.833740234375,1.833984375Z"
        fill-rule="evenodd" fill="currentColor" fill-opacity="1" style="mix-blend-mode:passthrough" />
    </g>
    <g>
      <path
        d="M9.631423,1.6718463749999999Q9.568025,1.602685375,9.534013,1.515246375Q9.5,1.427806275,9.5,1.333984375Q9.5,1.284738675,9.509607,1.236439275Q9.519214999999999,1.188139375,9.53806,1.1426423749999999Q9.556906,1.097145375,9.584265,1.056199375Q9.611625,1.015253375,9.646447,0.980431375Q9.681269,0.945609375,9.722215,0.918249375Q9.763161,0.890890375,9.808658,0.872044375Q9.854155,0.853199375,9.9024549,0.8435913749999999Q9.9507543,0.833984375,10,0.833984375Q10.105115,0.833984375,10.201332,0.876310375Q10.297548,0.918636375,10.368577,0.996122375L14.03504,4.995904375L14.03524,4.996124375Q14.09864,5.065284375,14.13265,5.152724375Q14.16667,5.240164375,14.16667,5.333984375Q14.16667,5.383234375,14.157060000000001,5.431534375Q14.14745,5.479824375,14.12861,5.525324375Q14.10976,5.570824375,14.0824,5.611764375Q14.05504,5.652714375,14.02022,5.687534375Q13.9854,5.722354375,13.94445,5.749714375Q13.90351,5.777074375,13.85801,5.795924375Q13.81251,5.814764375,13.76421,5.824374375Q13.715910000000001,5.833984375,13.66667,5.833984375Q13.56155,5.833984375,13.46534,5.791654375Q13.36912,5.749334375,13.29809,5.671844375L9.631423,1.6718463749999999Z"
        fill-rule="evenodd" fill="currentColor" fill-opacity="1" style="mix-blend-mode:passthrough" />
    </g>
    <g>
      <path
        d="M1.833740234375,6.666015625Q1.833740234375,6.616769925,1.843347234375,6.568470525Q1.852955234375,6.520170625,1.871800234375,6.474673625Q1.8906462343750001,6.429176625,1.918005234375,6.388230625Q1.945365234375,6.347284625,1.980187234375,6.312462625Q2.015009234375,6.277640625,2.055955234375,6.250280625Q2.096901234375,6.222921625,2.142398234375,6.204075625Q2.187895234375,6.185230625,2.236195134375,6.175622625Q2.284494534375,6.166015625,2.333740234375,6.166015625Q2.382985934375,6.166015625,2.431285334375,6.175622625Q2.479585234375,6.185230625,2.525082234375,6.204075625Q2.570579234375,6.222921625,2.611525234375,6.250280625Q2.652471234375,6.277640625,2.687293234375,6.312462625Q2.722115234375,6.347284625,2.749475234375,6.388230625Q2.776834234375,6.429176625,2.7956802343750002,6.474673625Q2.814525234375,6.520170625,2.824133234375,6.568470525Q2.833740234375,6.616769925,2.833740234375,6.666015625L2.833740234375,14.166015625L9.333740234375,14.166015625Q9.382990234375,14.166015625,9.431290234375,14.175625625Q9.479580234375,14.185225625000001,9.525080234375,14.204075625Q9.570580234375,14.222915624999999,9.611520234375,14.250275625Q9.652470234375,14.277635625,9.687290234375,14.312465625Q9.722110234375,14.347285625,9.749470234375,14.388225625Q9.776830234375,14.429175625,9.795680234375,14.474675625Q9.814520234375,14.520165625,9.824130234375,14.568465625Q9.833740234375,14.616765625,9.833740234375,14.666015625Q9.833740234375,14.715255625,9.824130234375,14.763555625Q9.814520234375,14.811855625,9.795680234375,14.857355625Q9.776830234375,14.902855625,9.749470234375,14.943795625Q9.722110234375,14.984745625,9.687290234375,15.019565625Q9.652470234375,15.054385625,9.611520234375,15.081745625Q9.570580234375,15.109105625,9.525080234375,15.127955625Q9.479580234375,15.146795625,9.431280234375,15.156405625Q9.382990234375,15.166015625,9.333740234375,15.166015625L2.333740234375,15.166015625Q2.284494534375,15.166015625,2.236195134375,15.156405625Q2.187895234375,15.146795625,2.142398234375,15.127955625Q2.096901234375,15.109105625,2.055955234375,15.081745625Q2.015009234375,15.054385625,1.980187234375,15.019565625Q1.945365234375,14.984745625,1.918005234375,14.943795625Q1.8906462343750001,14.902855625,1.871800234375,14.857355625Q1.852955234375,14.811855625,1.843347234375,14.763555625Q1.833740234375,14.715255625,1.833740234375,14.666015625L1.833740234375,6.666015625Z"
        fill-rule="evenodd" fill="currentColor" fill-opacity="1" style="mix-blend-mode:passthrough" />
    </g>
    <g>
      <path
        d="M6.333740234375,6.166015625L7.667070234375,6.166015625Q7.716320234375,6.166015625,7.764620234375,6.175622625Q7.8129202343749995,6.185230625,7.858420234375,6.204075625Q7.903910234375,6.222921625,7.944860234375,6.250280625Q7.9858002343750005,6.277640625,8.020630234375,6.312462625Q8.055450234375,6.347284625,8.082810234375,6.388230625Q8.110170234375,6.429176625,8.129010234375,6.474673625Q8.147860234374999,6.520170625,8.157470234375,6.568470525Q8.167070234375,6.616769925,8.167070234375,6.666015625Q8.167070234375,6.715261325,8.157470234375,6.763560725Q8.147860234374999,6.811860625,8.129010234375,6.857357625Q8.110170234375,6.902854625,8.082810234375,6.943800625Q8.055450234375,6.984746625,8.020630234375,7.019568625Q7.9858002343750005,7.054390625,7.944860234375,7.081750625Q7.903910234375,7.109109625,7.858420234375,7.127955625Q7.8129202343749995,7.146800625,7.764620234375,7.156408625Q7.716320234375,7.166015625,7.667070234375,7.166015625L6.333740234375,7.166015625Q6.284494534375,7.166015625,6.236195134375,7.156408625Q6.187895234375,7.146800625,6.142398234375,7.127955625Q6.096901234375,7.109109625,6.055955234375,7.081750625Q6.015009234375,7.054390625,5.980187234375,7.019568625Q5.945365234375,6.984746625,5.918005234375,6.943800625Q5.890646234375,6.902854625,5.871800234375,6.857357625Q5.852955234375,6.811860625,5.843347234375,6.763560725Q5.833740234375,6.715261325,5.833740234375,6.666015625Q5.833740234375,6.616769925,5.843347234375,6.568470525Q5.852955234375,6.520170625,5.871800234375,6.474673625Q5.890646234375,6.429176625,5.918005234375,6.388230625Q5.945365234375,6.347284625,5.980187234375,6.312462625Q6.015009234375,6.277640625,6.055955234375,6.250280625Q6.096901234375,6.222921625,6.142398234375,6.204075625Q6.187895234375,6.185230625,6.236195134375,6.175622625Q6.284494534375,6.166015625,6.333740234375,6.166015625Z"
        fill-rule="evenodd" fill="currentColor" fill-opacity="1" style="mix-blend-mode:passthrough" />
    </g>
    <g>
      <path
        d="M6.333740234375,8.833984375L10.333740234375,8.833984375Q10.382990234375,8.833984375,10.431290234375,8.843591375Q10.479580234375,8.853199374999999,10.525080234375,8.872044375Q10.570580234375,8.890890375,10.611520234375,8.918249375Q10.652470234375,8.945609375,10.687290234375,8.980431375Q10.722110234375,9.015253375,10.749470234375,9.056199375Q10.776830234375,9.097145375,10.795680234375,9.142642375Q10.814520234375,9.188139375,10.824130234375,9.236439275Q10.833740234375,9.284738675,10.833740234375,9.333984375Q10.833740234375,9.383230075,10.824130234375,9.431529475Q10.814520234375,9.479829375,10.795680234375,9.525326375Q10.776830234375,9.570823375,10.749470234375,9.611769375Q10.722110234375,9.652715375,10.687290234375,9.687537375Q10.652470234375,9.722359375,10.611520234375,9.749719375Q10.570580234375,9.777078375,10.525080234375,9.795924375Q10.479580234375,9.814769375000001,10.431290234375,9.824377375Q10.382990234375,9.833984375,10.333740234375,9.833984375L6.333740234375,9.833984375Q6.284494534375,9.833984375,6.236195134375,9.824377375Q6.187895234375,9.814769375000001,6.142398234375,9.795924375Q6.096901234375,9.777078375,6.055955234375,9.749719375Q6.015009234375,9.722359375,5.980187234375,9.687537375Q5.945365234375,9.652715375,5.918005234375,9.611769375Q5.890646234375,9.570823375,5.871800234375,9.525326375Q5.852955234375,9.479829375,5.843347234375,9.431529475Q5.833740234375,9.383230075,5.833740234375,9.333984375Q5.833740234375,9.284738675,5.843347234375,9.236439275Q5.852955234375,9.188139375,5.871800234375,9.142642375Q5.890646234375,9.097145375,5.918005234375,9.056199375Q5.945365234375,9.015253375,5.980187234375,8.980431375Q6.015009234375,8.945609375,6.055955234375,8.918249375Q6.096901234375,8.890890375,6.142398234375,8.872044375Q6.187895234375,8.853199374999999,6.236195134375,8.843591375Q6.284494534375,8.833984375,6.333740234375,8.833984375Z"
        fill-rule="evenodd" fill="currentColor" fill-opacity="1" style="mix-blend-mode:passthrough" />
    </g>
  </g>
</svg>