<svg width="17" height="16" viewBox="0 0 17 16" fill="none" xmlns="http://www.w3.org/2000/svg">
  <g id="Component 1">
    <path id="Vector"
      d="M13.5 1H5.125C5.05625 1 5 1.05625 5 1.125V2C5 2.06875 5.05625 2.125 5.125 2.125H12.875V12.875C12.875 12.9438 12.9312 13 13 13H13.875C13.9438 13 14 12.9438 14 12.875V1.5C14 1.22344 13.7766 1 13.5 1ZM11.5 3H3.5C3.22344 3 3 3.22344 3 3.5V11.7922C3 11.925 3.05312 12.0516 3.14687 12.1453L5.85469 14.8531C5.88906 14.8875 5.92813 14.9156 5.97031 14.9391V14.9688H6.03594C6.09062 14.9891 6.14844 15 6.20781 15H11.5C11.7766 15 12 14.7766 12 14.5V3.5C12 3.22344 11.7766 3 11.5 3ZM5.96875 13.3781L4.62344 12.0312H5.96875V13.3781ZM10.875 13.875H6.96875V11.6562C6.96875 11.3109 6.68906 11.0312 6.34375 11.0312H4.125V4.125H10.875V13.875Z"
      fill="currentColor" />
  </g>
</svg>