<svg width="14" height="14" viewBox="0 0 14 14" fill="none" xmlns="http://www.w3.org/2000/svg">
  <g id="Container" clip-path="url(#clip0_17_4454)">
    <g id="Component 1">
      <path id="Vector"
        d="M1.52124 12.0312C1.52124 12.2732 1.71675 12.4688 1.95874 12.4688H12.0212C12.2632 12.4688 12.4587 12.2732 12.4587 12.0312V6.28906H1.52124V12.0312ZM12.0212 2.51562H9.72437V1.64062C9.72437 1.58047 9.67515 1.53125 9.61499 1.53125H8.84937C8.78921 1.53125 8.73999 1.58047 8.73999 1.64062V2.51562H5.23999V1.64062C5.23999 1.58047 5.19077 1.53125 5.13062 1.53125H4.36499C4.30483 1.53125 4.25562 1.58047 4.25562 1.64062V2.51562H1.95874C1.71675 2.51562 1.52124 2.71113 1.52124 2.95312V5.35938H12.4587V2.95312C12.4587 2.71113 12.2632 2.51562 12.0212 2.51562Z"
        fill="currentColor" />
    </g>
  </g>
  <defs>
    <clipPath id="clip0_17_4454">
      <rect width="14" height="14" fill="currentColor" transform="translate(-0.0100098)" />
    </clipPath>
  </defs>
</svg>