<svg xmlns="http://www.w3.org/2000/svg" xmlns:xlink="http://www.w3.org/1999/xlink" fill="none" version="1.1" width="16"
  height="16" viewBox="0 0 16 16">
  <defs>
    <clipPath id="master_svg0_11_54132">
      <rect x="0" y="0" width="16" height="16" rx="0" />
    </clipPath>
  </defs>
  <g clip-path="url(#master_svg0_11_54132)">
    <g>
      <path
        d="M14,10.1669921875L12.66667,10.1669921875Q12.61742,10.1669921875,12.56912,10.1766021875Q12.52082,10.186202187500001,12.47532,10.2050521875Q12.429829999999999,10.2239021875,12.38888,10.2512521875Q12.34793,10.2786121875,12.31311,10.3134421875Q12.27829,10.3482621875,12.25093,10.3892021875Q12.22357,10.4301521875,12.20473,10.4756521875Q12.185880000000001,10.5211421875,12.17627,10.5694421875Q12.16667,10.6177421875,12.16667,10.6669921875Q12.16667,10.7162421875,12.17627,10.7645421875Q12.185880000000001,10.8128321875,12.20473,10.8583321875Q12.22357,10.9038321875,12.25093,10.9447721875Q12.27829,10.9857221875,12.31311,11.0205421875Q12.34793,11.0553621875,12.38888,11.0827221875Q12.429829999999999,11.1100821875,12.47532,11.1289321875Q12.52082,11.1477721875,12.56912,11.1573821875Q12.61742,11.1669921875,12.66667,11.1669921875L14,11.1669921875Q14.48326,11.1669921875,14.82496,10.8252921875Q15.16667,10.4835821875,15.16667,10.0003221875L15.16667,5.3336591875Q15.16667,4.8504011875,14.82496,4.5086971875Q14.48326,4.1669921875,14,4.1669921875L9,4.1669921875Q8.9507543,4.1669921875,8.9024549,4.1765991875Q8.854155,4.1862071875,8.808658,4.2050521875Q8.763161,4.2238981875,8.722215,4.2512571875Q8.681269,4.2786171875,8.646447,4.3134391875Q8.611625,4.3482611875,8.584265,4.3892071875Q8.556906,4.4301531875,8.53806,4.4756501875Q8.519214999999999,4.5211471875,8.509607,4.5694470875Q8.5,4.6177464875,8.5,4.6669921875Q8.5,4.7162378875,8.509607,4.7645372875Q8.519214999999999,4.8128371875,8.53806,4.8583341875Q8.556906,4.9038311875,8.584265,4.9447771875Q8.611625,4.9857231875,8.646447,5.0205451875Q8.681269,5.0553671875,8.722215,5.0827271875Q8.763161,5.1100861875,8.808658,5.1289321875Q8.854155,5.1477771875,8.9024549,5.1573851875Q8.9507543,5.1669921875,9,5.1669921875L14,5.1669921875Q14.069040000000001,5.1669921875,14.11786,5.2158041875Q14.16667,5.2646161875,14.16667,5.3336591875L14.16667,10.0003221875Q14.16667,10.1669921875,14,10.1669921875Z"
        fill-rule="evenodd" fill="currentColor" fill-opacity="1" />
    </g>
    <g>
      <path
        d="M1.999918953125,11.1669921875L6.999921953125,11.1669921875Q7.049161953125,11.1669921875,7.097461953125,11.1573821875Q7.145761953125,11.1477721875,7.191261953125,11.1289321875Q7.236751953125,11.1100821875,7.277701953125,11.0827221875Q7.318651953125,11.0553621875,7.353471953125,11.0205421875Q7.388291953125,10.9857221875,7.415651953125,10.9447721875Q7.443011953125,10.9038321875,7.461861953125,10.8583321875Q7.480701953125,10.8128321875,7.490311953125,10.7645421875Q7.499921953125,10.7162421875,7.499921953125,10.6669921875Q7.499921953125,10.6177421875,7.490311953125,10.5694421875Q7.480701953125,10.5211421875,7.461861953125,10.4756521875Q7.443011953125,10.4301521875,7.415651953125,10.3892021875Q7.388291953125,10.3482621875,7.353471953125,10.3134421875Q7.318651953125,10.2786121875,7.277701953125,10.2512521875Q7.236751953125,10.2239021875,7.191261953125,10.2050521875Q7.145761953125,10.186202187500001,7.097461953125,10.1766021875Q7.049161953125,10.1669921875,6.999921953125,10.1669921875L1.999918953125,10.1669921875Q1.930879953125,10.1669921875,1.8820659531250001,10.1181821875Q1.833251953125,10.069362187500001,1.833251953125,10.0003221875L1.833251953125,5.3336591875Q1.833251953125,5.1669921875,1.999918953125,5.1669921875L3.666581953125,5.1669921875Q3.715831953125,5.1669921875,3.764131953125,5.1573851875Q3.812431953125,5.1477771875,3.857921953125,5.1289321875Q3.903421953125,5.1100861875,3.944371953125,5.0827271875Q3.985311953125,5.0553671875,4.020141953125,5.0205451875Q4.054961953125,4.9857231875,4.082321953125,4.9447771875Q4.1096819531249995,4.9038311875,4.128521953125,4.8583341875Q4.147371953125,4.8128371875,4.156981953124999,4.7645372875Q4.166581953125,4.7162378875,4.166581953125,4.6669921875Q4.166581953125,4.6177464875,4.156981953124999,4.5694470875Q4.147371953125,4.5211471875,4.128521953125,4.4756501875Q4.1096819531249995,4.4301531875,4.082321953125,4.3892071875Q4.054961953125,4.3482611875,4.020141953125,4.3134391875Q3.985311953125,4.2786171875,3.944371953125,4.2512571875Q3.903421953125,4.2238981875,3.857921953125,4.2050521875Q3.812431953125,4.1862071875,3.764131953125,4.1765991875Q3.715831953125,4.1669921875,3.666581953125,4.1669921875L1.999918953125,4.1669921875Q1.516668953125,4.1669921875,1.174962953125,4.5086951875Q0.833251953125,4.8504021875,0.833251953125,5.3336591875L0.833251953125,10.0003221875Q0.833251953125,10.4835821875,1.174962953125,10.8252921875Q1.516668953125,11.1669921875,1.999918953125,11.1669921875Z"
        fill-rule="evenodd" fill="currentColor" fill-opacity="1" />
    </g>
    <g>
      <path
        d="M5.097809046875,1.7466490000000001L11.764028046875,13.0792L11.764378046874999,13.0798Q11.833418046875,13.1972,11.833418046875,13.3333Q11.833418046875,13.3826,11.823808046875001,13.4309Q11.814198046875,13.4792,11.795358046875,13.5247Q11.776508046875,13.5702,11.749148046875,13.6111Q11.721788046875,13.6521,11.686968046875,13.6869Q11.652148046875,13.7217,11.611198046875,13.7491Q11.570258046875,13.7764,11.524758046875,13.7953Q11.479258046875,13.8141,11.430958046875,13.8237Q11.382658046875001,13.8333,11.333418046875,13.8333Q11.268108046875,13.8333,11.204988046875,13.8166Q11.141868046875,13.7998,11.085178046875,13.7674Q11.028488046875001,13.7349,10.982018046875,13.689Q10.935558046875,13.6431,10.902448046875,13.5868L10.902088046875,13.5862L4.235875046875,2.253669L4.235781046875,2.25351Q4.166748046875,2.136154,4.166748046875,2Q4.166748046875,1.9507543,4.176355046875,1.9024549Q4.185963046875,1.854155,4.204808046875,1.8086579999999999Q4.223654046875,1.763161,4.251013046875,1.722215Q4.278373046875,1.681269,4.313195046875,1.646447Q4.348017046875,1.611625,4.388963046875,1.584265Q4.429909046875,1.5569060000000001,4.475406046875,1.53806Q4.520903046875,1.519215,4.569202946875,1.509607Q4.617502346875,1.5,4.666748046875,1.5Q4.732057746875,1.5,4.7951760468749995,1.516775Q4.858295046875,1.53355,4.914987046875,1.565975Q4.971679046875,1.5984,5.018140046875,1.644299Q5.064602046875,1.690197,5.097715046875,1.74649L5.097809046875,1.7466490000000001Z"
        fill-rule="evenodd" fill="currentColor" fill-opacity="1" />
    </g>
    <g>
      <path
        d="M10.666748046875,7.1669921875L12.000078046875,7.1669921875Q12.049328046875,7.1669921875,12.097628046875,7.1765991875Q12.145928046875,7.1862071875,12.191428046875,7.2050521875Q12.236918046875001,7.2238981875,12.277868046875,7.2512571875Q12.318808046875,7.2786171875,12.353638046875,7.3134391875Q12.388458046875,7.3482611875,12.415818046875,7.3892071875Q12.443178046875,7.4301531875,12.462018046875,7.4756501875Q12.480868046874999,7.5211471875,12.490478046875,7.5694470875Q12.500078046875,7.6177464875,12.500078046875,7.6669921875Q12.500078046875,7.7162378875,12.490478046875,7.7645372875Q12.480868046874999,7.8128371875,12.462018046875,7.8583341875Q12.443178046875,7.9038311875,12.415818046875,7.9447771875Q12.388458046875,7.9857231875,12.353638046875,8.0205451875Q12.318808046875,8.0553671875,12.277868046875,8.0827271875Q12.236918046875001,8.1100861875,12.191428046875,8.1289321875Q12.145928046875,8.147777187500001,12.097628046875,8.1573851875Q12.049328046875,8.1669921875,12.000078046875,8.1669921875L10.666748046875,8.1669921875Q10.617502346875,8.1669921875,10.569202946875,8.1573851875Q10.520903046875,8.147777187500001,10.475406046875,8.1289321875Q10.429909046875,8.1100861875,10.388963046875,8.0827271875Q10.348017046875,8.0553671875,10.313195046875,8.0205451875Q10.278373046875,7.9857231875,10.251013046875,7.9447771875Q10.223654046875,7.9038311875,10.204808046875,7.8583341875Q10.185963046874999,7.8128371875,10.176355046875,7.7645372875Q10.166748046875,7.7162378875,10.166748046875,7.6669921875Q10.166748046875,7.6177464875,10.176355046875,7.5694470875Q10.185963046874999,7.5211471875,10.204808046875,7.4756501875Q10.223654046875,7.4301531875,10.251013046875,7.3892071875Q10.278373046875,7.3482611875,10.313195046875,7.3134391875Q10.348017046875,7.2786171875,10.388963046875,7.2512571875Q10.429909046875,7.2238981875,10.475406046875,7.2050521875Q10.520903046875,7.1862071875,10.569202946875,7.1765991875Q10.617502346875,7.1669921875,10.666748046875,7.1669921875Z"
        fill-rule="evenodd" fill="currentColor" fill-opacity="1" />
    </g>
    <g>
      <path
        d="M4,7.1669921875L5.33333,7.1669921875Q5.38258,7.1669921875,5.43088,7.1765991875Q5.4791799999999995,7.1862071875,5.52468,7.2050521875Q5.57017,7.2238981875,5.61112,7.2512571875Q5.6520600000000005,7.2786171875,5.68689,7.3134391875Q5.72171,7.3482611875,5.74907,7.3892071875Q5.7764299999999995,7.4301531875,5.79527,7.4756501875Q5.81412,7.5211471875,5.82373,7.5694470875Q5.83333,7.6177464875,5.83333,7.6669921875Q5.83333,7.7162378875,5.82373,7.7645372875Q5.81412,7.8128371875,5.79527,7.8583341875Q5.7764299999999995,7.9038311875,5.74907,7.9447771875Q5.72171,7.9857231875,5.68689,8.0205451875Q5.6520600000000005,8.0553671875,5.61112,8.0827271875Q5.57017,8.1100861875,5.52468,8.1289321875Q5.4791799999999995,8.147777187500001,5.43088,8.1573851875Q5.38258,8.1669921875,5.33333,8.1669921875L4,8.1669921875Q3.9507543,8.1669921875,3.9024549,8.1573851875Q3.854155,8.147777187500001,3.808658,8.1289321875Q3.763161,8.1100861875,3.722215,8.0827271875Q3.681269,8.0553671875,3.646447,8.0205451875Q3.611625,7.9857231875,3.584265,7.9447771875Q3.556906,7.9038311875,3.5380599999999998,7.8583341875Q3.519215,7.8128371875,3.509607,7.7645372875Q3.5,7.7162378875,3.5,7.6669921875Q3.5,7.6177464875,3.509607,7.5694470875Q3.519215,7.5211471875,3.5380599999999998,7.4756501875Q3.556906,7.4301531875,3.584265,7.3892071875Q3.611625,7.3482611875,3.646447,7.3134391875Q3.681269,7.2786171875,3.722215,7.2512571875Q3.763161,7.2238981875,3.808658,7.2050521875Q3.854155,7.1862071875,3.9024549,7.1765991875Q3.9507543,7.1669921875,4,7.1669921875Z"
        fill-rule="evenodd" fill="currentColor" fill-opacity="1" />
    </g>
  </g>
</svg>