<svg xmlns="http://www.w3.org/2000/svg" xmlns:xlink="http://www.w3.org/1999/xlink" fill="none" version="1.1" width="28"
  height="28" viewBox="0 0 28 28">
  <defs>
    <clipPath id="master_svg0_11_14582">
      <rect x="4" y="4" width="20" height="20" rx="0" />
    </clipPath>
  </defs>
  <g>
    <g>
      <ellipse cx="14" cy="14" rx="14" ry="14" fill="currentColor" fill-opacity="1" />
    </g>
    <g clip-path="url(#master_svg0_11_14582)">
      <g>
        <path
          d="M8.16667,15.1663378125L9,15.1663378125Q9.07387,15.1663378125,9.14632,15.1519278125Q9.21877,15.1375178125,9.28701,15.1092478125Q9.35526,15.0809778125,9.41668,15.0399378125Q9.4781,14.9989078125,9.53033,14.9466678125Q9.58256,14.8944378125,9.6236,14.8330178125Q9.66464,14.7715978125,9.69291,14.7033578125Q9.72118,14.6351078125,9.73559,14.5626578125Q9.75,14.4902078125,9.75,14.4163378125Q9.75,14.3424678125,9.73559,14.2700278125Q9.72118,14.1975778125,9.69291,14.1293278125Q9.66464,14.0610778125,9.6236,13.9996678125Q9.58256,13.9382478125,9.53033,13.8860078125Q9.4781,13.8337778125,9.41668,13.7927378125Q9.35526,13.7516978125,9.28701,13.7234278125Q9.21877,13.6951678125,9.14632,13.6807478125Q9.07387,13.6663378125,9,13.6663378125L8.16667,13.6663378125Q7.78698,13.6663378125,7.51849,13.3978478125Q7.25,13.1293578125,7.25,12.7496778125Q7.25,12.3699878125,7.51849,12.1014978125Q7.78698,11.8330078125,8.16667,11.8330078125L9,11.8330078125Q9.07387,11.8330078125,9.14632,11.818596812500001Q9.21877,11.8041858125,9.28701,11.7759178125Q9.35526,11.7476488125,9.41668,11.7066098125Q9.4781,11.6655708125,9.53033,11.6133378125Q9.58256,11.5611048125,9.6236,11.4996858125Q9.66464,11.4382658125,9.69291,11.3700208125Q9.72118,11.3017748125,9.73559,11.2293258125Q9.75,11.1568763125,9.75,11.0830078125Q9.75,11.0091393125,9.73559,10.9366898125Q9.72118,10.8642408125,9.69291,10.7959948125Q9.66464,10.7277498125,9.6236,10.6663298125Q9.58256,10.6049108125,9.53033,10.5526778125Q9.4781,10.5004448125,9.41668,10.4594058125Q9.35526,10.4183668125,9.28701,10.3900978125Q9.21877,10.3618298125,9.14632,10.347418812499999Q9.07387,10.3330078125,9,10.3330078125L8.16667,10.3330078125Q7.165652,10.3330078125,6.4578233,11.0408409125Q5.75,11.7486688125,5.75,12.7496778125Q5.75,13.750677812500001,6.4578234,14.4585078125Q7.165652,15.1663378125,8.16667,15.1663378125Z"
          fill-rule="evenodd" fill="#FFFFFF" fill-opacity="1" style="mix-blend-mode:passthrough" />
      </g>
      <g>
        <path
          d="M11.91667,21.83333L13.16667,21.83333Q13.24054,21.83333,13.31298,21.81892Q13.38543,21.80451,13.45368,21.77624Q13.52192,21.74797,13.58334,21.70693Q13.64476,21.6659,13.697,21.61366Q13.74923,21.56143,13.79027,21.50001Q13.83131,21.43859,13.85958,21.370350000000002Q13.88784,21.3021,13.90226,21.22965Q13.91667,21.1572,13.91667,21.08333Q13.91667,21.00946,13.90226,20.93702Q13.88784,20.86457,13.85958,20.79632Q13.83131,20.72807,13.79027,20.66666Q13.74923,20.60524,13.697,20.553Q13.64476,20.50077,13.58334,20.45973Q13.52192,20.418689999999998,13.45368,20.39042Q13.38543,20.36216,13.31298,20.34774Q13.24054,20.33333,13.16667,20.33333L11.91667,20.33333Q11.53698,20.33333,11.26849,20.06484Q11,19.79635,11,19.41667Q11,19.03698,11.26849,18.76849Q11.53698,18.5,11.91667,18.5L13.16667,18.5Q13.24054,18.5,13.31298,18.485589Q13.38543,18.471178,13.45368,18.44291Q13.52192,18.414641,13.58334,18.373601999999998Q13.64476,18.332563,13.697,18.28033Q13.74923,18.228096999999998,13.79027,18.166678Q13.83131,18.105258,13.85958,18.037013Q13.88784,17.968767,13.90226,17.896318Q13.91667,17.8238685,13.91667,17.75Q13.91667,17.6761315,13.90226,17.603682Q13.88784,17.531233,13.85958,17.462987Q13.83131,17.394742,13.79027,17.333322Q13.74923,17.271903000000002,13.697,17.21967Q13.64476,17.167437,13.58334,17.126398000000002Q13.52192,17.085359,13.45368,17.05709Q13.38543,17.028822,13.31298,17.014411Q13.24054,17,13.16667,17L11.91667,17Q10.915662,17,10.2078311,17.7078317Q9.5,18.415663,9.5,19.41667Q9.5,20.41767,10.2078312,21.1255Q10.915663,21.83333,11.91667,21.83333Z"
          fill-rule="evenodd" fill="#FFFFFF" fill-opacity="1" style="mix-blend-mode:passthrough" />
      </g>
      <g>
        <path
          d="M14.00016609375,11.0003221875L15.25016609375,11.0003221875Q15.32403609375,11.0003221875,15.39647609375,10.9859121875Q15.46892609375,10.9715021875,15.53717609375,10.9432321875Q15.60541609375,10.9149621875,15.66683609375,10.8739221875Q15.72825609375,10.8328921875,15.78049609375,10.7806521875Q15.83272609375,10.7284221875,15.87376609375,10.6670021875Q15.91480609375,10.6055821875,15.94307609375,10.5373421875Q15.97133609375,10.4690921875,15.98575609375,10.3966421875Q16.00016609375,10.3241921875,16.00016609375,10.2503221875Q16.00016609375,10.1764521875,15.98575609375,10.1040121875Q15.97133609375,10.0315621875,15.94307609375,9.9633121875Q15.91480609375,9.8950621875,15.87376609375,9.8336521875Q15.83272609375,9.7722321875,15.78049609375,9.7199921875Q15.72825609375,9.6677621875,15.66683609375,9.6267221875Q15.60541609375,9.5856821875,15.53717609375,9.5574121875Q15.46892609375,9.5291521875,15.39647609375,9.5147321875Q15.32403609375,9.5003221875,15.25016609375,9.5003221875L14.00016609375,9.5003221875Q13.62047609375,9.5003221875,13.35198609375,9.2318321875Q13.08349609375,8.9633421875,13.08349609375,8.5836621875Q13.08349609375,8.2039621875,13.35198609375,7.9354821875Q13.62047609375,7.6669921875,14.00016609375,7.6669921875L15.25016609375,7.6669921875Q15.32403609375,7.6669921875,15.39647609375,7.6525811875Q15.46892609375,7.6381701875,15.53717609375,7.6099021875Q15.60541609375,7.5816331875,15.66683609375,7.5405941875Q15.72825609375,7.4995551875,15.78049609375,7.4473221875Q15.83272609375,7.3950891875,15.87376609375,7.3336701875Q15.91480609375,7.2722501875,15.94307609375,7.2040051875Q15.97133609375,7.1357591875,15.98575609375,7.0633101875Q16.00016609375,6.9908606875,16.00016609375,6.9169921875Q16.00016609375,6.8431236875,15.98575609375,6.7706741875Q15.97133609375,6.6982251875,15.94307609375,6.6299791875Q15.91480609375,6.5617341875,15.87376609375,6.5003141875Q15.83272609375,6.4388951875,15.78049609375,6.3866621875Q15.72825609375,6.3344291875,15.66683609375,6.2933901875Q15.60541609375,6.2523511875,15.53717609375,6.2240821875Q15.46892609375,6.1958141875,15.39647609375,6.1814031875Q15.32403609375,6.1669921875,15.25016609375,6.1669921875L14.00016609375,6.1669921875Q12.99915709375,6.1669921875,12.29132909375,6.8748155875Q11.58349609375,7.5826441875,11.58349609375,8.5836621875Q11.58349609375,9.584662187500001,12.29132719375,10.2924921875Q12.99915809375,11.0003221875,14.00016609375,11.0003221875Z"
          fill-rule="evenodd" fill="#FFFFFF" fill-opacity="1" style="mix-blend-mode:passthrough" />
      </g>
      <g>
        <path
          d="M14,9.5L20.66667,9.5Q20.74054,9.5,20.81298,9.514410999999999Q20.88543,9.528822,20.95368,9.55709Q21.02192,9.585359,21.08334,9.626398Q21.144759999999998,9.667437,21.197,9.71967Q21.24923,9.771903,21.29027,9.833322Q21.331310000000002,9.894742,21.35958,9.962987Q21.38784,10.031233,21.40226,10.103682Q21.41667,10.1761315,21.41667,10.25Q21.41667,10.3238685,21.40226,10.396318Q21.38784,10.468767,21.35958,10.537013Q21.331310000000002,10.605258,21.29027,10.666678Q21.24923,10.728097,21.197,10.78033Q21.144759999999998,10.832563,21.08334,10.873602Q21.02192,10.914641,20.95368,10.94291Q20.88543,10.971178,20.81298,10.985589000000001Q20.74054,11,20.66667,11L14,11Q13.9261315,11,13.853682,10.985589000000001Q13.781233,10.971178,13.712987,10.94291Q13.644742,10.914641,13.583322,10.873602Q13.521903,10.832563,13.46967,10.78033Q13.417437,10.728097,13.376398,10.666678Q13.335359,10.605258,13.30709,10.537013Q13.278822,10.468767,13.264410999999999,10.396318Q13.25,10.3238685,13.25,10.25Q13.25,10.1761315,13.264410999999999,10.103682Q13.278822,10.031233,13.30709,9.962987Q13.335359,9.894742,13.376398,9.833322Q13.417437,9.771903,13.46967,9.71967Q13.521903,9.667437,13.583322,9.626398Q13.644742,9.585359,13.712987,9.55709Q13.781233,9.528822,13.853682,9.514410999999999Q13.9261315,9.5,14,9.5Z"
          fill-rule="evenodd" fill="#FFFFFF" fill-opacity="1" style="mix-blend-mode:passthrough" />
      </g>
      <g>
        <path
          d="M9,13.6669921875L21.5,13.6669921875Q21.573900000000002,13.6669921875,21.6463,13.681403187499999Q21.7188,13.6958141875,21.787,13.7240821875Q21.8553,13.7523511875,21.9167,13.7933901875Q21.978099999999998,13.8344291875,22.0303,13.8866621875Q22.0826,13.9388951875,22.1236,14.0003141875Q22.1646,14.0617341875,22.1929,14.1299791875Q22.2212,14.1982251875,22.235599999999998,14.2706741875Q22.25,14.3431236875,22.25,14.4169921875Q22.25,14.4908606875,22.235599999999998,14.5633101875Q22.2212,14.6357591875,22.1929,14.7040051875Q22.1646,14.7722501875,22.1236,14.8336701875Q22.0826,14.8950891875,22.0303,14.9473221875Q21.978099999999998,14.9995551875,21.9167,15.0405941875Q21.8553,15.0816331875,21.787,15.1099021875Q21.7188,15.1381701875,21.6463,15.152581187500001Q21.573900000000002,15.1669921875,21.5,15.1669921875L9,15.1669921875Q8.9261315,15.1669921875,8.853682,15.152581187500001Q8.781233,15.1381701875,8.712987,15.1099021875Q8.644742,15.0816331875,8.583322,15.0405941875Q8.521903,14.9995551875,8.46967,14.9473221875Q8.417437,14.8950891875,8.376398,14.8336701875Q8.335359,14.7722501875,8.30709,14.7040051875Q8.278822,14.6357591875,8.264410999999999,14.5633101875Q8.25,14.4908606875,8.25,14.4169921875Q8.25,14.3431236875,8.264410999999999,14.2706741875Q8.278822,14.1982251875,8.30709,14.1299791875Q8.335359,14.0617341875,8.376398,14.0003141875Q8.417437,13.9388951875,8.46967,13.8866621875Q8.521903,13.8344291875,8.583322,13.7933901875Q8.644742,13.7523511875,8.712987,13.7240821875Q8.781233,13.6958141875,8.853682,13.681403187499999Q8.9261315,13.6669921875,9,13.6669921875Z"
          fill-rule="evenodd" fill="#FFFFFF" fill-opacity="1" style="mix-blend-mode:passthrough" />
      </g>
      <g>
        <path
          d="M13.16650390625,17L18.16650390625,17Q18.24037390625,17,18.31282390625,17.014411Q18.38527390625,17.028822,18.45352390625,17.05709Q18.52176390625,17.085359,18.58318390625,17.126398000000002Q18.64460390625,17.167437,18.69683390625,17.21967Q18.74907390625,17.271903000000002,18.79011390625,17.333322Q18.83115390625,17.394742,18.85941390625,17.462987Q18.88768390625,17.531233,18.902093906250002,17.603682Q18.91650390625,17.6761315,18.91650390625,17.75Q18.91650390625,17.8238685,18.902093906250002,17.896318Q18.88768390625,17.968767,18.85941390625,18.037013Q18.83115390625,18.105258,18.79011390625,18.166678Q18.74907390625,18.228096999999998,18.69683390625,18.28033Q18.64460390625,18.332563,18.58318390625,18.373601999999998Q18.52176390625,18.414641,18.45352390625,18.44291Q18.38527390625,18.471178,18.31282390625,18.485589Q18.24037390625,18.5,18.16650390625,18.5L13.16650390625,18.5Q13.09263540625,18.5,13.02018590625,18.485589Q12.94773690625,18.471178,12.87949090625,18.44291Q12.81124590625,18.414641,12.74982590625,18.373601999999998Q12.68840690625,18.332563,12.63617390625,18.28033Q12.58394090625,18.228096999999998,12.54290190625,18.166678Q12.50186290625,18.105258,12.47359390625,18.037013Q12.44532590625,17.968767,12.430914906249999,17.896318Q12.41650390625,17.8238685,12.41650390625,17.75Q12.41650390625,17.6761315,12.430914906249999,17.603682Q12.44532590625,17.531233,12.47359390625,17.462987Q12.50186290625,17.394742,12.54290190625,17.333322Q12.58394090625,17.271903000000002,12.63617390625,17.21967Q12.68840690625,17.167437,12.74982590625,17.126398000000002Q12.81124590625,17.085359,12.87949090625,17.05709Q12.94773690625,17.028822,13.02018590625,17.014411Q13.09263540625,17,13.16650390625,17Z"
          fill-rule="evenodd" fill="#FFFFFF" fill-opacity="1" style="mix-blend-mode:passthrough" />
      </g>
    </g>
  </g>
</svg>