<svg xmlns="http://www.w3.org/2000/svg" xmlns:xlink="http://www.w3.org/1999/xlink" fill="none" version="1.1" width="16"
  height="16" viewBox="0 0 16 16">
  <defs>
    <clipPath id="master_svg0_11_54085">
      <rect x="0" y="0" width="16" height="16" rx="0" />
    </clipPath>
  </defs>
  <g clip-path="url(#master_svg0_11_54085)">
    <g>
      <rect x="0" y="0" width="16" height="16" rx="0" fill="currentColor" fill-opacity="0.009999999776482582"
        style="mix-blend-mode:passthrough" />
    </g>
    <g>
      <path
        d="M2.932321953125,2.9320778125Q0.833251953125,5.0311378125,0.833250953125,7.9996778125Q0.833251953125,10.9682078125,2.932321953125,13.0673078125Q5.031391953125,15.1663078125,7.999921953125,15.1663078125Q10.968451953125,15.1663078125,13.067551953125,13.0673078125Q15.166551953125,10.9682078125,15.166551953125,7.9996778125Q15.166551953125,5.0311478125,13.067551953125,2.9320778125Q10.968451953125,0.8330078125,7.999921953125,0.8330068125Q5.031381953125,0.8330078125,2.932321953125,2.9320778125ZM3.639421953125,12.3602078125Q1.833251953125,10.5539978125,1.833251953125,7.9996778125Q1.833251953125,5.4453578125,3.639421953125,3.6391778125Q5.445601953125,1.8330078125,7.999921953125,1.8330068125Q10.554231953125,1.8330078125,12.360451953125,3.6391778125Q14.166551953125,5.4453578125,14.166551953125,7.9996778125Q14.166551953125,10.5539878125,12.360451953125,12.3602078125Q10.554241953125,14.1663078125,7.999921953125,14.1663078125Q5.445601953125,14.1663078125,3.639421953125,12.3602078125Z"
        fill-rule="evenodd" fill="currentColor" fill-opacity="1" style="mix-blend-mode:passthrough" />
    </g>
    <g>
      <path
        d="M6.467856953125,4.4676128125Q5.833251953125,5.1022178125,5.833251953125,5.9996778125Q5.833251953125,6.8971278125,6.467856953125,7.531737812499999Q7.102461953125,8.1663378125,7.999921953125,8.1663378125Q8.897371953124999,8.1663378125,9.531981953125,7.531737812499999Q10.166581953125,6.8971278125,10.166581953125,5.9996778125Q10.166581953125,5.1022178125,9.531981953125,4.4676128125Q8.897371953124999,3.8330078125,7.999921953125,3.8330078125Q7.102461953125,3.8330078125,6.467856953125,4.4676128125ZM7.174963953125,6.8246278125Q6.833251953125,6.4829178125,6.833251953125,5.9996778125Q6.833251953125,5.5164278125,7.174963953125,5.1747198125Q7.516671953125,4.8330078125,7.999921953125,4.8330078125Q8.483161953125,4.8330078125,8.824871953125001,5.1747198125Q9.166581953125,5.5164278125,9.166581953125,5.9996778125Q9.166581953125,6.4829178125,8.824871953125001,6.8246278125Q8.483161953125,7.1663378125,7.999921953125,7.1663378125Q7.516671953125,7.1663378125,7.174963953125,6.8246278125Z"
        fill-rule="evenodd" fill="currentColor" fill-opacity="1" style="mix-blend-mode:passthrough" />
    </g>
    <g>
      <path
        d="M11.271156171874999,10.9333521875Q12.084576171875,11.6963321875,12.159966171875,12.8046921875Q12.163156171875,12.8516821875,12.175076171875,12.8972521875Q12.186996171875,12.9428221875,12.207216171875,12.9853721875Q12.227426171875,13.0279121875,12.255236171875,13.0659321875Q12.283046171875,13.1039521875,12.317466171875,13.1361121875Q12.351886171875,13.1682721875,12.391706171875,13.193432187500001Q12.431526171875,13.2185921875,12.475336171875,13.2358821875Q12.519156171875,13.2531621875,12.565426171875,13.2619621875Q12.611706171875,13.2707621875,12.658806171875,13.2707621875Q12.708056171875,13.2707621875,12.756356171875,13.2611521875Q12.804656171875,13.2515421875,12.850146171875,13.2327021875Q12.895646171875,13.2138521875,12.936596171875,13.1864921875Q12.977536171875,13.1591321875,13.012366171875,13.1243121875Q13.047186171875,13.0894921875,13.074546171875,13.0485421875Q13.101906171875,13.0075921875,13.120746171875,12.962102187500001Q13.139596171875,12.9166021875,13.149206171875,12.8683021875Q13.158806171875,12.8200021875,13.158806171875,12.7707621875Q13.158806171875,12.753772187500001,13.157656171875,12.7368321875Q13.055576171875,11.2360521875,11.955296171875,10.2039961875Q10.849736171875,9.1669921875,9.333246171875,9.1669921875L6.6665761718750005,9.1669921875Q5.147936171875,9.1669921875,4.041817171875,10.2065561875Q2.941058171875,11.2410821875,2.841704171875,12.7440921875L2.841681171875,12.744442187499999L2.841660171875,12.7447521875L3.839493171875,12.8105621875Q3.912722171875,11.7002121875,4.726656171875,10.9352421875Q5.544106171875001,10.1669921875,6.6665761718750005,10.1669921875L9.333246171875,10.1669921875Q10.454136171875,10.1669921875,11.271156171874999,10.9333521875Z"
        fill-rule="evenodd" fill="currentColor" fill-opacity="1" style="mix-blend-mode:passthrough" />
    </g>
  </g>
</svg>