<svg xmlns="http://www.w3.org/2000/svg" xmlns:xlink="http://www.w3.org/1999/xlink" fill="none" version="1.1" width="16"
  height="16" viewBox="0 0 16 16">
  <defs>
    <clipPath id="master_svg0_11_18321">
      <rect x="0" y="0" width="16" height="16" rx="0" />
    </clipPath>
  </defs>
  <g clip-path="url(#master_svg0_11_18321)">
    <g>
      <path
        d="M4.546988046875,2.504778Q3.031704046875,3.4754300000000002,2.218990046875,5.11082Q2.166748046875,5.21594,2.166748046875,5.33333Q2.166748046875,5.38258,2.176355046875,5.43088Q2.185963046875,5.4791799999999995,2.2048080468749998,5.52467Q2.223654046875,5.57017,2.251013046875,5.61112Q2.278373046875,5.6520600000000005,2.313195046875,5.68689Q2.348017046875,5.72171,2.388963046875,5.74907Q2.429909046875,5.7764299999999995,2.475406046875,5.79527Q2.520903046875,5.81412,2.569202946875,5.823729999999999Q2.617502346875,5.83333,2.666748046875,5.83333Q2.736545446875,5.83333,2.803675046875,5.814220000000001Q2.870804046875,5.79511,2.930132046875,5.7583400000000005Q2.989460046875,5.72157,3.036452046875,5.66996Q3.083444046875,5.6183499999999995,3.114506046875,5.5558499999999995Q3.804088046875,4.16824,5.086388046874999,3.3468299999999997Q6.408368046875,2.5,7.997148046875,2.5Q9.592268046874999,2.5,10.933228046875,3.34835Q12.238648046875,4.17421,12.925048046875,5.55453L12.925648046875,5.5558499999999995Q12.956748046875,5.6183499999999995,13.003748046875,5.66996Q13.050748046875,5.72157,13.110048046875,5.7583400000000005Q13.169348046875,5.79511,13.236548046875,5.814220000000001Q13.303648046875,5.83333,13.373448046875,5.83333Q13.422648046875,5.83333,13.470948046875,5.823729999999999Q13.519248046875,5.81412,13.564748046875,5.79527Q13.610248046875,5.7764299999999995,13.651248046875,5.74907Q13.692148046875,5.72171,13.727048046875,5.68689Q13.761848046875,5.6520600000000005,13.789148046875,5.61112Q13.816548046875,5.57017,13.835348046875,5.52467Q13.854248046875,5.4791799999999995,13.863848046875,5.43088Q13.873448046875,5.38258,13.873448046875,5.33333Q13.873448046875,5.21594,13.821248046875,5.11082L13.821148046875,5.110720000000001L13.820548046875,5.10949Q13.009648046875,3.47867,11.467868046875,2.503263Q9.882038046875,1.5,7.997148046875,1.5Q6.115548046875,1.5,4.546988046875,2.504778Z"
        fill-rule="evenodd" fill="currentColor" fill-opacity="1" />
    </g>
    <g>
      <path
        d="M2.166748046875,2.66650390625Q2.166748046875,2.61725820625,2.176355046875,2.56895880625Q2.185963046875,2.52065890625,2.2048080468749998,2.47516190625Q2.223654046875,2.42966490625,2.251013046875,2.38871890625Q2.278373046875,2.34777290625,2.313195046875,2.31295090625Q2.348017046875,2.27812890625,2.388963046875,2.25076890625Q2.429909046875,2.22340990625,2.475406046875,2.2045639062499998Q2.520903046875,2.18571890625,2.569202946875,2.17611090625Q2.617502346875,2.16650390625,2.666748046875,2.16650390625Q2.715993746875,2.16650390625,2.764293146875,2.17611090625Q2.812593046875,2.18571890625,2.858090046875,2.2045639062499998Q2.903587046875,2.22340990625,2.944533046875,2.25076890625Q2.985479046875,2.27812890625,3.020301046875,2.31295090625Q3.055123046875,2.34777290625,3.082483046875,2.38871890625Q3.109842046875,2.42966490625,3.1286880468750002,2.47516190625Q3.147533046875,2.52065890625,3.157141046875,2.56895880625Q3.166748046875,2.61725820625,3.166748046875,2.66650390625L3.166748046875,5.33317390625Q3.166748046875,5.38241390625,3.157141046875,5.43071390625Q3.147533046875,5.47901390625,3.1286880468750002,5.52451390625Q3.109842046875,5.57001390625,3.082483046875,5.61095390625Q3.055123046875,5.65190390625,3.020301046875,5.68672390625Q2.985479046875,5.72154390625,2.944533046875,5.74890390625Q2.903587046875,5.77626390625,2.858090046875,5.79511390625Q2.812593046875,5.81395390625,2.764293146875,5.8235639062499995Q2.715993746875,5.83317390625,2.666748046875,5.83317390625Q2.617502346875,5.83317390625,2.569202946875,5.8235639062499995Q2.520903046875,5.81395390625,2.475406046875,5.79511390625Q2.429909046875,5.77626390625,2.388963046875,5.74890390625Q2.348017046875,5.72154390625,2.313195046875,5.68672390625Q2.278373046875,5.65190390625,2.251013046875,5.61095390625Q2.223654046875,5.57001390625,2.2048080468749998,5.52451390625Q2.185963046875,5.47901390625,2.176355046875,5.43071390625Q2.166748046875,5.38241390625,2.166748046875,5.33317390625L2.166748046875,2.66650390625Z"
        fill-rule="evenodd" fill="currentColor" fill-opacity="1" />
    </g>
    <g>
      <path
        d="M2.666748046875,4.83349609375L4.926808046875,4.83349609375Q4.976048046875,4.83349609375,5.024348046875,4.84310309375Q5.072648046875,4.85271109375,5.118148046875,4.87155609375Q5.163648046875,4.89040209375,5.204588046875,4.91776109375Q5.245538046875,4.94512109375,5.2803580468749995,4.97994309375Q5.315178046874999,5.01476509375,5.342538046875,5.05571109375Q5.369898046875,5.09665709375,5.3887480468749995,5.14215409375Q5.407588046875,5.18765109375,5.417198046875,5.23595099375Q5.426808046875,5.28425039375,5.426808046875,5.33349609375Q5.426808046875,5.38274179375,5.417198046875,5.43104119375Q5.407588046875,5.47934109375,5.3887480468749995,5.52483809375Q5.369898046875,5.57033509375,5.342538046875,5.61128109375Q5.315178046874999,5.65222709375,5.2803580468749995,5.68704909375Q5.245538046875,5.72187109375,5.204588046875,5.74923109375Q5.163648046875,5.77659009375,5.118148046875,5.79543609375Q5.072648046875,5.81428109375,5.024348046875,5.82388909375Q4.976048046875,5.83349609375,4.926808046875,5.83349609375L2.666748046875,5.83349609375Q2.617502346875,5.83349609375,2.569202946875,5.82388909375Q2.520903046875,5.81428109375,2.475406046875,5.79543609375Q2.429909046875,5.77659009375,2.388963046875,5.74923109375Q2.348017046875,5.72187109375,2.313195046875,5.68704909375Q2.278373046875,5.65222709375,2.251013046875,5.61128109375Q2.223654046875,5.57033509375,2.2048080468749998,5.52483809375Q2.185963046875,5.47934109375,2.176355046875,5.43104119375Q2.166748046875,5.38274179375,2.166748046875,5.33349609375Q2.166748046875,5.28425039375,2.176355046875,5.23595099375Q2.185963046875,5.18765109375,2.2048080468749998,5.14215409375Q2.223654046875,5.09665709375,2.251013046875,5.05571109375Q2.278373046875,5.01476509375,2.313195046875,4.97994309375Q2.348017046875,4.94512109375,2.388963046875,4.91776109375Q2.429909046875,4.89040209375,2.475406046875,4.87155609375Q2.520903046875,4.85271109375,2.569202946875,4.84310309375Q2.617502346875,4.83349609375,2.666748046875,4.83349609375Z"
        fill-rule="evenodd" fill="currentColor" fill-opacity="1" />
    </g>
    <g>
      <path
        d="M3.114634046875,10.44424590625Q3.801048046875,11.825313906249999,5.106968046875,12.65149390625Q6.4479380468750005,13.49983390625,8.043078046875,13.49983390625Q9.631838046875,13.49983390625,10.953818046875,12.65300390625Q12.235508046875,11.83198390625,12.925048046875,10.44530390625L12.925648046875,10.44406990625L12.925648046875,10.44398890625Q12.956748046875,10.38148390625,13.003748046875,10.32987590625Q13.050748046875,10.27826690625,13.110048046875,10.24149990625Q13.169348046875,10.20473190625,13.236548046875,10.18561790625Q13.303648046875,10.16650390625,13.373448046875,10.16650390625Q13.422648046875,10.16650390625,13.470948046875,10.17611090625Q13.519248046875,10.185718906249999,13.564748046875,10.20456390625Q13.610248046875,10.22340990625,13.651248046875,10.25076890625Q13.692148046875,10.27812890625,13.727048046875,10.31295090625Q13.761848046875,10.34777290625,13.789148046875,10.38871890625Q13.816548046875,10.42966490625,13.835348046875,10.47516190625Q13.854248046875,10.52065890625,13.863848046875,10.56895880625Q13.873448046875,10.61725820625,13.873448046875,10.66650390625Q13.873448046875,10.78389390625,13.821248046875,10.88901890625L13.821148046875,10.88911490625L13.820548046875,10.89034990625Q13.007848046875,12.52480390625,11.493218046875,13.49505390625Q9.924668046875,14.49983390625,8.043078046875,14.49983390625Q6.158178046874999,14.49983390625,4.572338046875,13.49657390625Q3.029953046875,12.52080390625,2.219051046875,10.88913990625L2.218990046875,10.88901890625Q2.166748046875,10.78389390625,2.166748046875,10.66650390625Q2.166748046875,10.61725820625,2.176355046875,10.56895880625Q2.185963046875,10.52065890625,2.2048080468749998,10.47516190625Q2.223654046875,10.42966490625,2.251013046875,10.38871890625Q2.278373046875,10.34777290625,2.313195046875,10.31295090625Q2.348017046875,10.27812890625,2.388963046875,10.25076890625Q2.429909046875,10.22340990625,2.475406046875,10.20456390625Q2.520903046875,10.185718906249999,2.569202946875,10.17611090625Q2.617502346875,10.16650390625,2.666748046875,10.16650390625Q2.736545446875,10.16650390625,2.803675046875,10.18561790625Q2.870804046875,10.20473190625,2.930132046875,10.24149990625Q2.9894610468750002,10.27826690625,3.036452046875,10.32987490625Q3.083444046875,10.38148390625,3.114506046875,10.44398890625L3.114634046875,10.44424590625Z"
        fill-rule="evenodd" fill="currentColor" fill-opacity="1" />
    </g>
    <g>
      <path
        d="M12.873779296875,10.66650390625Q12.873779296875,10.61725820625,12.883386296875,10.56895880625Q12.892994296874999,10.52065890625,12.911839296875,10.47516190625Q12.930685296875,10.42966490625,12.958044296875,10.38871890625Q12.985404296875,10.34777290625,13.020226296875,10.31295090625Q13.055048296875,10.27812890625,13.095994296875,10.25076890625Q13.136940296875,10.22340990625,13.182437296875,10.20456390625Q13.227934296875,10.185718906249999,13.276234196875,10.17611090625Q13.324533596875,10.16650390625,13.373779296875,10.16650390625Q13.423024996875,10.16650390625,13.471324396875,10.17611090625Q13.519624296875,10.185718906249999,13.565121296875,10.20456390625Q13.610618296875,10.22340990625,13.651564296875,10.25076890625Q13.692510296875,10.27812890625,13.727332296875,10.31295090625Q13.762154296875,10.34777290625,13.789514296875,10.38871890625Q13.816873296875,10.42966490625,13.835719296875,10.47516190625Q13.854564296875001,10.52065890625,13.864172296875,10.56895880625Q13.873779296875,10.61725820625,13.873779296875,10.66650390625L13.873779296875,13.33317390625Q13.873779296875,13.382413906250001,13.864172296875,13.43071390625Q13.854564296875001,13.47901390625,13.835719296875,13.52451390625Q13.816873296875,13.57001390625,13.789514296875,13.61095390625Q13.762154296875,13.65190390625,13.727332296875,13.68672390625Q13.692510296875,13.72154390625,13.651564296875,13.74890390625Q13.610618296875,13.77626390625,13.565121296875,13.79511390625Q13.519624296875,13.81395390625,13.471324396875,13.82356390625Q13.423024996875,13.83317390625,13.373779296875,13.83317390625Q13.324533596875,13.83317390625,13.276234196875,13.82356390625Q13.227934296875,13.81395390625,13.182437296875,13.79511390625Q13.136940296875,13.77626390625,13.095994296875,13.74890390625Q13.055048296875,13.72154390625,13.020226296875,13.68672390625Q12.985404296875,13.65190390625,12.958044296875,13.61095390625Q12.930685296875,13.57001390625,12.911839296875,13.52451390625Q12.892994296874999,13.47901390625,12.883386296875,13.43071390625Q12.873779296875,13.382413906250001,12.873779296875,13.33317390625L12.873779296875,10.66650390625Z"
        fill-rule="evenodd" fill="currentColor" fill-opacity="1" />
    </g>
    <g>
      <path
        d="M11.11328125,10.16650390625L13.373351249999999,10.16650390625Q13.42259125,10.16650390625,13.470891250000001,10.17611090625Q13.51919125,10.185718906249999,13.56469125,10.20456390625Q13.61018125,10.22340990625,13.65113125,10.25076890625Q13.692081250000001,10.27812890625,13.726901250000001,10.31295090625Q13.76172125,10.34777290625,13.78908125,10.38871890625Q13.81644125,10.42966490625,13.835291250000001,10.47516190625Q13.85413125,10.52065890625,13.86374125,10.56895880625Q13.873351249999999,10.61725820625,13.873351249999999,10.66650390625Q13.873351249999999,10.71574960625,13.86374125,10.76404900625Q13.85413125,10.81234890625,13.835291250000001,10.85784590625Q13.81644125,10.90334290625,13.78908125,10.94428890625Q13.76172125,10.98523490625,13.726901250000001,11.02005690625Q13.692081250000001,11.05487890625,13.65113125,11.08223890625Q13.61018125,11.10959790625,13.56469125,11.12844390625Q13.51919125,11.147288906250001,13.470891250000001,11.15689690625Q13.42259125,11.16650390625,13.373351249999999,11.16650390625L11.11328125,11.16650390625Q11.06403555,11.16650390625,11.01573615,11.15689690625Q10.96743625,11.147288906250001,10.92193925,11.12844390625Q10.87644225,11.10959790625,10.83549625,11.08223890625Q10.79455025,11.05487890625,10.75972825,11.02005690625Q10.72490625,10.98523490625,10.69754625,10.94428890625Q10.67018725,10.90334290625,10.65134125,10.85784590625Q10.632496249999999,10.81234890625,10.62288825,10.76404900625Q10.61328125,10.71574960625,10.61328125,10.66650390625Q10.61328125,10.61725820625,10.62288825,10.56895880625Q10.632496249999999,10.52065890625,10.65134125,10.47516190625Q10.67018725,10.42966490625,10.69754625,10.38871890625Q10.72490625,10.34777290625,10.75972825,10.31295090625Q10.79455025,10.27812890625,10.83549625,10.25076890625Q10.87644225,10.22340990625,10.92193925,10.20456390625Q10.96743625,10.185718906249999,11.01573615,10.17611090625Q11.06403555,10.16650390625,11.11328125,10.16650390625Z"
        fill-rule="evenodd" fill="currentColor" fill-opacity="1" />
    </g>
  </g>
</svg>