<svg width="30" height="30" viewBox="0 0 30 30" fill="none" xmlns="http://www.w3.org/2000/svg">
  <g id="Group 50">
    <path id="Vector"
      d="M15 3C15 3 8.4375 5.4 8.4375 15C8.4375 18.72 9.435 21.9 10.6294 24.396C10.8393 24.8167 11.1776 25.173 11.6037 25.4221C12.0298 25.6712 12.5255 25.8024 13.0312 25.8H16.9688C17.4745 25.8024 17.9702 25.6712 18.3963 25.4221C18.8224 25.173 19.1607 24.8167 19.3706 24.396C20.5781 21.9 21.5625 18.72 21.5625 15C21.5625 5.4 15 3 15 3ZM16.9688 23.4H13.0312C11.7188 20.712 11.0625 17.892 11.0625 15C11.0625 9.432 13.5562 6.84 15 5.796C16.4438 6.84 18.9375 9.432 18.9375 15C18.9375 17.892 18.2812 20.712 16.9688 23.4ZM25.5 27L20.4337 25.14C21.3525 23.304 22.0087 21.408 22.4156 19.476M9.56625 25.14L4.5 27L7.58437 19.476C7.99125 21.408 8.6475 23.304 9.56625 25.14ZM15 15C13.5562 15 12.375 13.92 12.375 12.6C12.375 11.28 13.5562 10.2 15 10.2C16.4438 10.2 17.625 11.28 17.625 12.6C17.625 13.92 16.4438 15 15 15Z"
      fill="currentColor" />
  </g>
</svg>