<svg xmlns="http://www.w3.org/2000/svg" xmlns:xlink="http://www.w3.org/1999/xlink" fill="none" version="1.1" width="9.5"
  height="5.5" viewBox="0 0 9.5 5.5">
  <g>
    <path
      d="M1.280484,0.21982400000000002L4.75,3.68934L8.21967,0.21967000000000003Q8.32516,0.11418099999999998,8.46299,0.057089999999999974Q8.600819999999999,0,8.75,0Q8.82387,0,8.89632,0.014410999999999952Q8.96877,0.028822000000000014,9.03701,0.057089999999999974Q9.10526,0.08535899999999996,9.16668,0.126398Q9.2281,0.16743699999999995,9.28033,0.21967000000000003Q9.33256,0.271903,9.3736,0.333322Q9.41464,0.394742,9.44291,0.462987Q9.47118,0.5312330000000001,9.48559,0.603682Q9.5,0.6761315,9.5,0.75Q9.5,0.899184,9.44291,1.037013Q9.38582,1.174841,9.28033,1.28033L9.27987,1.280792L5.28033,5.28033Q5.2281,5.33256,5.16668,5.3736Q5.10526,5.41464,5.03701,5.44291Q4.96877,5.47118,4.89632,5.48559Q4.82387,5.5,4.75,5.5Q4.676130000000001,5.5,4.603680000000001,5.48559Q4.53123,5.47118,4.46299,5.44291Q4.3947400000000005,5.41464,4.3333200000000005,5.3736Q4.2719000000000005,5.33256,4.21967,5.28033L0.21982400000000002,1.280484L0.21967000000000003,1.28033Q0.11418099999999998,1.174841,0.057089999999999974,1.037013Q0,0.899184,0,0.75Q0,0.6761315,0.014410999999999952,0.603682Q0.028822000000000014,0.5312330000000001,0.057089999999999974,0.462987Q0.08535899999999996,0.394742,0.126398,0.333322Q0.16743699999999995,0.271903,0.21967000000000003,0.21967000000000003Q0.271903,0.16743699999999995,0.333322,0.126398Q0.394742,0.08535899999999996,0.462987,0.057089999999999974Q0.5312330000000001,0.028822000000000014,0.603682,0.014410999999999952Q0.6761315,0,0.75,0Q0.899184,0,1.037013,0.057089999999999974Q1.174841,0.11418099999999998,1.28033,0.21967000000000003L1.280484,0.21982400000000002Z"
      fill-rule="evenodd" fill="currentColor" fill-opacity="1" />
  </g>
</svg>