<svg xmlns="http://www.w3.org/2000/svg" xmlns:xlink="http://www.w3.org/1999/xlink" fill="none" version="1.1" width="20"
  height="20" viewBox="0 0 20 20">
  <defs>
    <clipPath id="master_svg0_11_14592">
      <rect x="0" y="0" width="20" height="20" rx="0" />
    </clipPath>
  </defs>
  <g clip-path="url(#master_svg0_11_14592)">
    <g>
      <rect x="0" y="0" width="20" height="20" rx="0" fill="#FFFFFF" fill-opacity="0.009999999776482582"
        style="mix-blend-mode:passthrough" />
    </g>
    <g>
      <path
        d="M8.33393875,18.21715Q8.72276875,17.00085,10.00129875,17.00085Q11.27983875,17.00085,11.66866875,18.21715Q11.69086875,18.28665,11.72606875,18.35055Q11.76116875,18.41445,11.80796875,18.47035Q11.85486875,18.52625,11.91156875,18.57205Q11.96826875,18.61795,12.03276875,18.65195Q12.09716875,18.68605,12.16706875,18.70705Q12.23686875,18.72805,12.30946875,18.73525Q12.38196875,18.74235,12.45456875,18.73545Q12.52716875,18.72845,12.59706875,18.70765Q14.88376875,18.02685,16.54676875,16.29875Q16.59456875,16.24905,16.63256875,16.19145Q16.670468749999998,16.13395,16.69726875,16.070349999999998Q16.72416875,16.00685,16.73886875,15.93945Q16.75366875,15.87215,16.75596875,15.80325Q16.75816875,15.73425,16.747868750000002,15.66615Q16.737468749999998,15.59795,16.71486875,15.53275Q16.69226875,15.46765,16.65816875,15.40765Q16.62406875,15.34775,16.57956875,15.29505Q16.16796875,14.80725,16.16796875,14.16745Q16.16796875,13.44265,16.68056875,12.93005Q17.193068750000002,12.41745,17.91796875,12.41745Q18.00576875,12.41745,18.09216875,12.42595Q18.16076875,12.43275,18.22946875,12.42685Q18.29816875,12.42095,18.36466875,12.40265Q18.43116875,12.38435,18.49316875,12.35425Q18.55516875,12.32405,18.61066875,12.28315Q18.66616875,12.24225,18.71326875,12.19185Q18.76036875,12.14145,18.79746875,12.08335Q18.83466875,12.02525,18.86056875,11.96134Q18.88646875,11.89743,18.90026875,11.82987Q19.08466875,10.92846,19.08466875,10.00082Q19.08466875,8.6004,18.66856875,7.27583Q18.65066875,7.21875,18.62386875,7.16524Q18.59716875,7.11172,18.56226875,7.06313Q18.52736875,7.01453,18.48516875,6.97209Q18.44306875,6.92964,18.39466875,6.89441Q18.34636875,6.85918,18.29306875,6.83206Q18.23966875,6.80494,18.18276875,6.78662Q18.12576875,6.76829,18.06666875,6.75923Q18.00756875,6.75017,17.94766875,6.75059L17.91796875,6.75082Q16.16796875,6.75082,16.16796875,5.0008300000000006Q16.16796875,4.59157,16.34706875,4.22832Q16.37366875,4.1744,16.391268750000002,4.11693Q16.40896875,4.05946,16.417268749999998,3.99991Q16.42556875,3.9403699999999997,16.42416875,3.88026Q16.42286875,3.82016,16.41206875,3.76103Q16.40116875,3.7019,16.38096875,3.64526Q16.36086875,3.5886199999999997,16.33196875,3.5359100000000003Q16.302968749999998,3.4832,16.266068750000002,3.4357699999999998Q16.22916875,3.38834,16.18506875,3.34741Q14.55896875,1.83535,12.42966875,1.245933Q12.36766875,1.22877,12.30366875,1.222416Q12.23966875,1.2160630000000001,12.17546875,1.2207050000000002Q12.11126875,1.225347,12.04886875,1.2408489999999999Q11.98646875,1.256351,11.92756875,1.282261Q11.86866875,1.30817,11.81506875,1.343729Q11.76146875,1.3792879999999998,11.71466875,1.4234580000000001Q11.66788875,1.467628,11.62931875,1.5191189999999999Q11.59074875,1.57061,11.56151875,1.627917Q11.07366875,2.584162,10.00129875,2.584162Q8.92893875,2.584162,8.441088749999999,1.627917Q8.41185875,1.57061,8.37328875,1.5191189999999999Q8.33471875,1.467628,8.28794875,1.4234580000000001Q8.24116875,1.3792879999999998,8.18755875,1.343729Q8.13393875,1.30817,8.07505875,1.282261Q8.01616875,1.2563520000000001,7.95373875,1.2408489999999999Q7.89129875,1.225347,7.82712875,1.2207050000000002Q7.76295875,1.2160630000000001,7.69894875,1.222416Q7.63492875,1.22877,7.57291875,1.245933Q5.44365875,1.835349,3.81750875,3.34741Q3.77347875,3.38834,3.73653875,3.4357699999999998Q3.69958875,3.4832,3.67067875,3.5359100000000003Q3.64175875,3.5886199999999997,3.62160875,3.64526Q3.60145875,3.7019,3.5905787499999997,3.76103Q3.57970875,3.82016,3.57839875,3.88026Q3.5770887499999997,3.9403699999999997,3.58535875,3.99991Q3.59363875,4.05946,3.61129875,4.11693Q3.62894875,4.1744,3.65553875,4.22832Q3.83463875,4.591559999999999,3.83463875,5.0008300000000006Q3.83463875,5.7257,3.3220687499999997,6.23826Q2.80950875,6.75082,2.08997575,6.75084L2.05488875,6.75059Q1.99506575,6.75017,1.93593075,6.75923Q1.87679675,6.76829,1.81984675,6.78662Q1.76289695,6.80494,1.70957175,6.83206Q1.65624645,6.85918,1.60789445,6.89441Q1.55954275,6.92963,1.51738675,6.97208Q1.47523075,7.01453,1.44033675,7.06313Q1.40544275,7.11172,1.37869375,7.16523Q1.35194475,7.21874,1.33401675,7.27582Q0.91796875,8.60034,0.91796875,10.00082Q0.91796875,10.92849,1.10234575,11.82987Q1.11616475,11.89743,1.14207175,11.96134Q1.16797875,12.02525,1.20510375,12.08335Q1.24222875,12.14145,1.2893287500000001,12.19185Q1.33642775,12.24225,1.39192175,12.28315Q1.44741675,12.32405,1.50944375,12.35425Q1.57147205,12.38435,1.63795395,12.40265Q1.70443585,12.42095,1.77314275,12.42685Q1.84184875,12.43275,1.91047675,12.42595Q1.99685275,12.41745,2.08463575,12.41745Q2.80950875,12.41745,3.3220687499999997,12.93005Q3.83463875,13.44265,3.83463875,14.16745Q3.83463875,14.80725,3.4230287500000003,15.29505Q3.37855875,15.34775,3.34443875,15.40765Q3.31032875,15.46765,3.28771875,15.53275Q3.26509875,15.59795,3.25474875,15.66615Q3.24439875,15.73425,3.2466487500000003,15.80325Q3.24889875,15.87215,3.26368875,15.93945Q3.27846875,16.00685,3.30528875,16.070349999999998Q3.3321087499999997,16.13395,3.3700687499999997,16.19145Q3.4080287499999997,16.24905,3.45584875,16.29875Q5.11889875,18.02685,7.40553875,18.70765Q7.47542875,18.72845,7.54801875,18.73545Q7.62060875,18.74235,7.69317875,18.73525Q7.76574875,18.72805,7.83557875,18.70705Q7.90540875,18.68605,7.96987875,18.65195Q8.034358749999999,18.61795,8.09106875,18.57205Q8.147768750000001,18.52625,8.194588750000001,18.47035Q8.24139875,18.41445,8.27656875,18.35055Q8.31173875,18.28665,8.33393875,18.21715ZM12.80126875,17.052149999999997Q11.96816875,15.50085,10.00129875,15.50085Q8.03441875,15.50085,7.20133875,17.052149999999997Q5.96556875,16.565649999999998,4.96903875,15.67555Q5.33463875,14.98865,5.33463875,14.16745Q5.33463875,12.82125,4.38272875,11.8694Q3.57198875,11.05865,2.47521975,10.93842Q2.41796875,10.47394,2.41796875,10.00082Q2.41796875,9.0847,2.63062775,8.20863Q3.63121875,8.05043,4.38272875,7.29892Q5.33463875,6.34702,5.33463875,5.0008300000000006Q5.33463875,4.54474,5.214108749999999,4.11829Q6.22196875,3.29298,7.44220875,2.859061Q8.346988750000001,4.08416,10.00129875,4.08416Q11.65561875,4.08416,12.56036875,2.8590619999999998Q13.78066875,3.29298,14.78846875,4.11829Q14.66796875,4.54474,14.66796875,5.0008300000000006Q14.66796875,6.34702,15.61986875,7.29892Q16.372668750000003,8.05173,17.37206875,8.20919Q17.58466875,9.08502,17.58466875,10.00082Q17.58466875,10.47393,17.52736875,10.93843Q16.430668750000002,11.05865,15.61986875,11.8694Q14.66796875,12.82135,14.66796875,14.16745Q14.66796875,14.98865,15.03356875,15.67555Q14.03706875,16.565649999999998,12.80126875,17.052149999999997Z"
        fill-rule="evenodd" fill="currentColor" fill-opacity="1" />
    </g>
    <g>
      <path
        d="M7.40597225,7.40597225Q6.33203125,8.47991125,6.33203125,9.99870125Q6.33203125,11.51748125,7.40597225,12.59142125Q8.47991125,13.66536125,9.99870125,13.66536125Q11.51748125,13.66536125,12.59142125,12.59142125Q13.66536125,11.51748125,13.66536125,9.99870125Q13.66536125,8.47991125,12.59142125,7.40597225Q11.51748125,6.33203125,9.99870125,6.33203125Q8.47991125,6.33203125,7.40597225,7.40597225ZM8.46663125,11.530761250000001Q7.83203125,10.89616125,7.83203125,9.99870125Q7.83203125,9.10123125,8.46663125,8.46663125Q9.10123125,7.83203125,9.99870125,7.83203125Q10.89616125,7.83203125,11.530761250000001,8.46663125Q12.16536125,9.10123125,12.16536125,9.99870125Q12.16536125,10.89616125,11.530761250000001,11.530761250000001Q10.89616125,12.16536125,9.99870125,12.16536125Q9.10123125,12.16536125,8.46663125,11.530761250000001Z"
        fill-rule="evenodd" fill="currentColor" fill-opacity="1" />
    </g>
  </g>
</svg>