<svg width="14" height="14" viewBox="0 0 14 14" fill="none" xmlns="http://www.w3.org/2000/svg">
  <path id="Vector" fill-rule="evenodd" clip-rule="evenodd"
    d="M4.6802 14C4.30893 13.9999 3.95289 13.8524 3.6904 13.5898L0.4102 10.3096C0.147631 10.0471 7.89157e-05 9.69107 -4.09156e-07 9.3198L-8.14763e-07 4.6802C7.84451e-05 4.30893 0.14763 3.95289 0.410199 3.6904L3.6904 0.410201C3.95289 0.147632 4.30893 8.01396e-05 4.6802 8.14763e-07L9.3198 4.09156e-07C9.69107 7.96691e-05 10.0471 0.147631 10.3096 0.4102L13.5898 3.6904C13.8524 3.95289 13.9999 4.30893 14 4.6802L14 9.3198C13.9999 9.69107 13.8524 10.0471 13.5898 10.3096L10.3096 13.5898C10.0471 13.8524 9.69107 13.9999 9.3198 14L4.6802 14ZM7 4.9C7.18565 4.9 7.3637 4.82625 7.49497 4.69498C7.62625 4.5637 7.7 4.38565 7.7 4.2C7.7 4.01435 7.62625 3.8363 7.49497 3.70503C7.3637 3.57375 7.18565 3.5 7 3.5C6.81435 3.5 6.6363 3.57375 6.50502 3.70503C6.37375 3.8363 6.3 4.01435 6.3 4.2C6.3 4.38565 6.37375 4.5637 6.50502 4.69498C6.6363 4.82625 6.81435 4.9 7 4.9ZM7 11.2C7.17145 11.2 7.33694 11.137 7.46506 11.0231C7.59318 10.9092 7.67504 10.7522 7.6951 10.5819L7.7 10.5L7.7 6.3C7.6998 6.12159 7.63148 5.94998 7.50901 5.82024C7.38653 5.69051 7.21913 5.61244 7.04102 5.60198C6.86291 5.59152 6.68753 5.64947 6.55072 5.76399C6.4139 5.8785 6.32597 6.04093 6.3049 6.2181L6.3 6.3L6.3 10.5C6.3 10.6857 6.37375 10.8637 6.50503 10.995C6.6363 11.1263 6.81435 11.2 7 11.2Z"
    fill="currentColor" />
</svg>