<svg width="21" height="22" viewBox="0 0 21 22" fill="none" xmlns="http://www.w3.org/2000/svg">
<g id="Component 6">
<path id="Vector" d="M11.0002 6.3C12.9344 6.3 14.7893 7.07437 16.157 8.45277C17.5246 9.83116 18.293 11.7007 18.293 13.65C18.293 15.5993 17.5246 17.4688 16.157 18.8472C14.7893 20.2256 12.9344 21 11.0002 21C9.06603 21 7.21109 20.2256 5.84343 18.8472C4.47578 17.4688 3.70743 15.5993 3.70743 13.65C3.70743 11.7007 4.47578 9.83116 5.84343 8.45277C7.21109 7.07437 9.06603 6.3 11.0002 6.3ZM8.31229 9.33137e-08C8.65054 -3.22098e-05 8.98372 0.08293 9.28303 0.241721C9.58235 0.400511 9.83881 0.630356 10.0303 0.9114L10.1209 1.0584L11.9285 4.2462C10.6691 4.11808 9.39705 4.24914 8.18946 4.63142C6.98188 5.01371 5.86393 5.63925 4.90345 6.4701L4.66174 6.6864L2.20617 2.3562C2.07596 2.12674 2.00516 1.86794 2.00027 1.60365C1.99539 1.33937 2.05658 1.07809 2.17821 0.843899C2.29984 0.609709 2.478 0.410138 2.69627 0.263577C2.91454 0.117016 3.1659 0.0281786 3.42718 0.00525021L3.56158 9.33137e-08H8.31229ZM18.4367 9.33137e-08C18.7105 -9.4866e-05 18.9795 0.0722872 19.2167 0.2099C19.454 0.347513 19.6512 0.545528 19.7887 0.784122C19.9262 1.02272 19.999 1.29352 20 1.56942C20.001 1.84531 19.93 2.11663 19.7942 2.3562L17.3386 6.6864C16.4641 5.87662 15.4448 5.24166 14.3351 4.8153L12.2045 1.0584C12.1562 0.972758 12.1018 0.890655 12.042 0.8127C12.2368 0.559726 12.4863 0.354984 12.7716 0.214126C13.0569 0.0732688 13.3704 2.66399e-05 13.6881 9.33137e-08H18.4367Z" fill="#FF9500"/>
<path id="Text" d="M10.5285 16.476H14.0445V18H7.98448V16.872L10.6365 13.896C11.0925 13.384 11.4085 12.984 11.5845 12.696C11.7685 12.4 11.8605 12.096 11.8605 11.784C11.8605 11.44 11.7645 11.164 11.5725 10.956C11.3805 10.748 11.1205 10.644 10.7925 10.644C10.4565 10.644 10.1605 10.768 9.90448 11.016C9.64848 11.256 9.45248 11.6 9.31648 12.048L7.94848 11.256C8.15648 10.544 8.53248 10 9.07648 9.624C9.62048 9.24 10.2485 9.048 10.9605 9.048C11.5205 9.048 12.0045 9.164 12.4125 9.396C12.8285 9.62 13.1445 9.932 13.3605 10.332C13.5845 10.732 13.6965 11.188 13.6965 11.7C13.6965 12.204 13.5725 12.676 13.3245 13.116C13.0845 13.548 12.6525 14.112 12.0285 14.808L10.5285 16.476Z" fill="white"/>
</g>
</svg>
