<svg width="21" height="22" viewBox="0 0 21 22" fill="none" xmlns="http://www.w3.org/2000/svg">
<g id="Component 6">
<path id="Vector" d="M11.0002 6.3C12.9344 6.3 14.7893 7.07437 16.157 8.45277C17.5246 9.83116 18.293 11.7007 18.293 13.65C18.293 15.5993 17.5246 17.4688 16.157 18.8472C14.7893 20.2256 12.9344 21 11.0002 21C9.06603 21 7.21109 20.2256 5.84343 18.8472C4.47578 17.4688 3.70743 15.5993 3.70743 13.65C3.70743 11.7007 4.47578 9.83116 5.84343 8.45277C7.21109 7.07437 9.06603 6.3 11.0002 6.3ZM8.31229 9.33137e-08C8.65054 -3.22098e-05 8.98372 0.08293 9.28303 0.241721C9.58235 0.400511 9.83881 0.630356 10.0303 0.9114L10.1209 1.0584L11.9285 4.2462C10.6691 4.11808 9.39705 4.24914 8.18946 4.63142C6.98188 5.01371 5.86393 5.63925 4.90345 6.4701L4.66174 6.6864L2.20617 2.3562C2.07596 2.12674 2.00516 1.86794 2.00027 1.60365C1.99539 1.33937 2.05658 1.07809 2.17821 0.843899C2.29984 0.609709 2.478 0.410138 2.69627 0.263577C2.91454 0.117016 3.1659 0.0281786 3.42718 0.00525021L3.56158 9.33137e-08H8.31229ZM18.4367 9.33137e-08C18.7105 -9.4866e-05 18.9795 0.0722872 19.2167 0.2099C19.454 0.347513 19.6512 0.545528 19.7887 0.784122C19.9262 1.02272 19.999 1.29352 20 1.56942C20.001 1.84531 19.93 2.11663 19.7942 2.3562L17.3386 6.6864C16.4641 5.87662 15.4448 5.24166 14.3351 4.8153L12.2045 1.0584C12.1562 0.972758 12.1018 0.890655 12.042 0.8127C12.2368 0.559726 12.4863 0.354984 12.7716 0.214126C13.0569 0.0732688 13.3704 2.66399e-05 13.6881 9.33137e-08H18.4367Z" fill="#AC8E68"/>
<path id="Text" d="M12.4725 13.416C12.9605 13.6 13.3325 13.872 13.5885 14.232C13.8445 14.584 13.9725 15.024 13.9725 15.552C13.9725 16.096 13.8325 16.564 13.5525 16.956C13.2805 17.34 12.9085 17.636 12.4365 17.844C11.9725 18.044 11.4565 18.144 10.8885 18.144C10.1605 18.144 9.52448 17.972 8.98048 17.628C8.44448 17.284 8.06448 16.784 7.84048 16.128L9.22048 15.336C9.34848 15.752 9.56048 16.068 9.85648 16.284C10.1525 16.492 10.4845 16.596 10.8525 16.596C11.2125 16.596 11.5125 16.492 11.7525 16.284C12.0005 16.076 12.1245 15.788 12.1245 15.42C12.1245 14.612 11.5085 14.208 10.2765 14.208H9.95248V12.768H10.4205C10.8765 12.768 11.2245 12.66 11.4645 12.444C11.7125 12.22 11.8365 11.944 11.8365 11.616C11.8365 11.312 11.7365 11.068 11.5365 10.884C11.3365 10.7 11.0765 10.608 10.7565 10.608C10.4125 10.608 10.1125 10.72 9.85648 10.944C9.60848 11.16 9.41648 11.472 9.28048 11.88L7.96048 11.124C8.16848 10.452 8.53248 9.94 9.05248 9.588C9.57248 9.228 10.1885 9.048 10.9005 9.048C11.4525 9.048 11.9365 9.152 12.3525 9.36C12.7765 9.56 13.1045 9.844 13.3365 10.212C13.5685 10.58 13.6845 11.004 13.6845 11.484C13.6845 11.932 13.5805 12.32 13.3725 12.648C13.1725 12.976 12.8725 13.232 12.4725 13.416Z" fill="white"/>
</g>
</svg>
