<svg width="47" height="46" viewBox="0 0 47 46" fill="none" xmlns="http://www.w3.org/2000/svg">
<g id="Group 38">
<rect id="Rectangle 27" x="0.198242" width="45.853" height="45.853" rx="22.9265" fill="#0A0A0A"/>
<path id="Vector" d="M18.2009 27.9213C16.649 26.8437 15.4858 25.3075 14.8799 23.5353C14.274 21.7631 14.2569 19.847 14.8309 18.0646C15.405 16.2822 16.5405 14.7261 18.0729 13.6216C19.6052 12.5172 21.4549 11.9219 23.3539 11.9219C25.2529 11.9219 27.1026 12.5172 28.635 13.6216C30.1674 14.7261 31.3029 16.2822 31.8769 18.0646C32.451 19.847 32.4338 21.7631 31.8279 23.5353C31.222 25.3075 30.0589 26.8437 28.5069 27.9213L30.835 33.1599C30.8724 33.2437 30.888 33.3354 30.8803 33.4267C30.8726 33.518 30.8418 33.6059 30.7909 33.6825C30.7399 33.7591 30.6704 33.822 30.5885 33.8654C30.5066 33.9089 30.415 33.9315 30.322 33.9313H16.3847C16.2919 33.9315 16.2004 33.9088 16.1187 33.8654C16.037 33.822 15.9675 33.7593 15.9166 33.6828C15.8656 33.6063 15.8349 33.5186 15.827 33.4275C15.8192 33.3364 15.8346 33.2448 15.8717 33.1609L18.2009 27.9213ZM20.1075 21.5236C19.506 21.6717 19.1293 22.2928 19.4302 22.8343C19.7212 23.3577 20.119 23.8209 20.6031 24.1927C21.389 24.7963 22.3572 25.1241 23.3539 25.1241C24.3507 25.1241 25.3188 24.7963 26.1048 24.1927C26.5887 23.8211 26.9864 23.358 27.2773 22.8349C27.5785 22.2932 27.2016 21.6717 26.5997 21.5236V21.5236C26.0039 21.377 25.4154 21.7735 24.9958 22.2211C24.9144 22.3078 24.8258 22.3884 24.7303 22.4619C24.3372 22.7646 23.8525 22.929 23.3534 22.929C22.8543 22.929 22.3696 22.7646 21.9764 22.4619C21.8809 22.3883 21.7921 22.3076 21.7107 22.2208C21.2913 21.7733 20.703 21.377 20.1075 21.5236V21.5236Z" fill="#D9D9D9"/>
</g>
</svg>
