<svg width="18" height="18" viewBox="0 0 18 18" fill="none" xmlns="http://www.w3.org/2000/svg">
  <g id="Link">
    <g id="Component 1">
      <path id="Vector" fill-rule="evenodd" clip-rule="evenodd"
        d="M15.3427 2.09578C15.5394 2.01097 15.7547 1.98172 15.9662 2.01107C16.1777 2.04043 16.3777 2.12731 16.5453 2.26267C16.7129 2.39804 16.842 2.57694 16.9192 2.78076C16.9964 2.98458 17.0188 3.20587 16.9842 3.42158L15.1787 14.6387C15.0035 15.7207 13.8445 16.3412 12.8757 15.8023C12.0653 15.3514 10.8616 14.6567 9.77895 13.9318C9.23763 13.5689 7.57942 12.407 7.78321 11.5802C7.95834 10.8733 10.7446 8.21681 12.3367 6.63743C12.9616 6.01693 12.6766 5.65898 11.9387 6.22974C10.1061 7.64686 7.16387 9.80191 6.19107 10.4085C5.33291 10.9434 4.88552 11.0348 4.35056 10.9434C3.37458 10.7771 2.46945 10.5194 1.7307 10.2055C0.732432 9.78152 0.780992 8.37581 1.72991 7.96649L15.3427 2.09578Z"
        fill="currentColor" />
    </g>
  </g>
</svg>