<svg width="18" height="18" viewBox="0 0 18 18" fill="none" xmlns="http://www.w3.org/2000/svg">
  <g id="Link">
    <g id="Component 1">
      <path id="Vector" fill-rule="evenodd" clip-rule="evenodd"
        d="M9 1C4.5816 1 1 4.5816 1 9C1 10.512 1.42 11.928 2.1504 13.1344L1.4368 15.56C1.39583 15.6993 1.39313 15.847 1.429 15.9877C1.46486 16.1283 1.53796 16.2567 1.64061 16.3594C1.74326 16.462 1.87167 16.5351 2.01233 16.571C2.153 16.6069 2.30073 16.6042 2.44 16.5632L4.8656 15.8496C6.11259 16.604 7.54259 17.0019 9 17C13.4184 17 17 13.4184 17 9C17 4.5816 13.4184 1 9 1ZM7.1904 10.8104C8.8088 12.428 10.3536 12.6416 10.8992 12.6616C11.7288 12.692 12.5368 12.0584 12.8512 11.3232C12.8906 11.2317 12.9048 11.1313 12.8924 11.0324C12.88 10.9336 12.8415 10.8398 12.7808 10.7608C12.3424 10.2008 11.7496 9.7984 11.1704 9.3984C11.0495 9.31458 10.9009 9.28092 10.7557 9.3045C10.6105 9.32807 10.4801 9.40705 10.392 9.5248L9.912 10.2568C9.88664 10.296 9.84731 10.3241 9.80201 10.3354C9.7567 10.3467 9.70879 10.3403 9.668 10.3176C9.3424 10.1312 8.868 9.8144 8.5272 9.4736C8.1864 9.1328 7.8888 8.68 7.7216 8.3752C7.70137 8.33636 7.69566 8.29159 7.70548 8.24892C7.71531 8.20625 7.74003 8.16848 7.7752 8.1424L8.5144 7.5936C8.6202 7.50207 8.6885 7.37472 8.70622 7.23596C8.72393 7.09719 8.68981 6.95677 8.6104 6.8416C8.252 6.3168 7.8344 5.6496 7.2288 5.2072C7.15048 5.15092 7.05895 5.11583 6.96308 5.10532C6.86721 5.09481 6.77026 5.10923 6.6816 5.1472C5.9456 5.4624 5.3088 6.2704 5.3392 7.1016C5.3592 7.6472 5.5728 9.192 7.1904 10.8104Z"
        fill="currentColor" />
    </g>
  </g>
</svg>