<svg width="18" height="18" viewBox="0 0 18 18" fill="none" xmlns="http://www.w3.org/2000/svg">
  <g id="Link">
    <g id="Component 1">
      <path id="Vector" fill-rule="evenodd" clip-rule="evenodd"
        d="M9 2C9.7695 2 10.5588 2.01925 11.3238 2.05075L12.2274 2.09275L13.0923 2.14263L13.9023 2.196L14.6421 2.252C15.4451 2.3114 16.2007 2.64438 16.776 3.19228C17.3512 3.74017 17.7091 4.46785 17.7867 5.24712L17.8227 5.619L17.8902 6.41525C17.9532 7.24037 18 8.13988 18 9C18 9.86012 17.9532 10.7596 17.8902 11.5848L17.8227 12.381L17.7867 12.7529C17.7091 13.5323 17.351 14.2601 16.7756 14.808C16.2002 15.3559 15.4443 15.6888 14.6412 15.748L13.9032 15.8031L13.0932 15.8574L12.2274 15.9072L11.3238 15.9492C10.5496 15.9819 9.77488 15.9988 9 16C8.22512 15.9988 7.45035 15.9819 6.6762 15.9492L5.7726 15.9072L4.9077 15.8574L4.0977 15.8031L3.3579 15.748C2.55493 15.6886 1.79928 15.3556 1.22404 14.8077C0.6488 14.2598 0.290872 13.5322 0.2133 12.7529L0.1773 12.381L0.1098 11.5848C0.0412495 10.7247 0.00462568 9.86259 0 9C0 8.13988 0.0468 7.24037 0.1098 6.41525L0.1773 5.619L0.2133 5.24712C0.290842 4.46798 0.64864 3.74042 1.2237 3.19254C1.79875 2.64466 2.55419 2.3116 3.357 2.252L4.0959 2.196L4.9059 2.14263L5.7717 2.09275L6.6753 2.05075C7.44975 2.01814 8.22482 2.00122 9 2ZM7.2 6.87812V11.1219C7.2 11.5261 7.65 11.7781 8.01 11.5769L11.79 9.455C11.8723 9.40897 11.9406 9.34267 11.9881 9.26279C12.0356 9.18291 12.0606 9.09227 12.0606 9C12.0606 8.90773 12.0356 8.81709 11.9881 8.73721C11.9406 8.65733 11.8723 8.59103 11.79 8.545L8.01 6.424C7.92788 6.37791 7.83473 6.35365 7.73991 6.35366C7.64509 6.35368 7.55195 6.37797 7.46985 6.42408C7.38775 6.4702 7.31959 6.53653 7.27222 6.61638C7.22485 6.69624 7.19994 6.78681 7.2 6.879V6.87812Z"
        fill="currentColor" />
    </g>
  </g>
</svg>